<svg width="447" height="720" viewBox="0 0 447 720" fill="none" xmlns="http://www.w3.org/2000/svg">
<path d="M127.102 418.361C138.27 424.378 150.396 428.49 161.461 434.694C181.2 445.761 196.912 463.105 216.88 473.753C237.488 484.742 261.519 487.924 284.851 486.877C309.559 485.769 334.472 479.926 355.418 466.773C376.364 453.62 393.001 432.619 397.744 408.345C402.288 385.091 395.904 361.002 398.282 337.428C400.754 312.911 412.5 290.399 418.94 266.614C425.098 243.868 426.352 219.807 422.591 196.544C419.077 174.811 411.024 153.493 397.112 136.43C383.2 119.367 363.094 106.871 341.21 104.475C310.921 101.159 281.822 116.785 251.468 119.434C236.649 120.727 221.737 118.901 206.865 119.229C180.642 119.807 154.598 127.227 132.008 140.556C112.912 151.823 95.7562 168.094 88.5512 189.063C83.5482 203.623 83.6462 219.354 83.2002 234.742C82.3412 264.399 80.5822 295.643 73.4472 324.538C67.6192 348.139 76.7492 368.84 91.5002 387.936C101.108 400.377 113.249 410.898 127.102 418.361Z" fill="#FCEDF3"/>
<path d="M165.31 310.44C147.92 281.077 128.189 252.828 103.733 229.027C79.2769 205.226 49.8349 185.939 17.0059 176.619C31.6609 192.757 40.0219 213.628 45.9129 234.616C51.8039 255.604 55.5329 277.199 62.4939 297.857C75.1309 335.357 98.1159 368.7 124.962 397.773C138.692 412.642 153.472 426.503 168.699 439.822C179.035 448.864 194.031 467.31 209.622 465.574C234.127 462.845 201.653 384.13 195.968 370.583C187.251 349.816 176.782 329.81 165.31 310.44Z" fill="#F9D3E3"/>
<path d="M17.0059 176.619C17.0059 176.619 153.463 300.242 209.622 465.575" stroke="black" stroke-width="0.5" stroke-miterlimit="10" stroke-linecap="round" stroke-linejoin="round"/>
<path d="M323.058 329.331C335.081 297.393 349.604 266.146 369.551 238.456C389.499 210.767 415.142 186.658 445.852 171.775C434.224 190.214 429.617 212.22 427.463 233.913C425.308 255.605 425.389 277.52 422.123 299.073C416.194 338.198 399.353 375.028 377.968 408.324C367.031 425.353 354.884 441.571 342.203 457.333C333.595 468.033 322.033 488.805 306.378 489.804C281.772 491.375 300.073 408.214 303.318 393.886C308.294 371.921 315.126 350.4 323.058 329.331Z" fill="#F9D3E3"/>
<path d="M445.853 171.777C445.853 171.777 332.954 317.231 306.379 489.807" stroke="black" stroke-width="0.5" stroke-miterlimit="10" stroke-linecap="round" stroke-linejoin="round"/>
<path d="M181.706 436.712C157.452 408.663 132.002 381.264 101.999 359.475C71.996 337.685 36.966 321.629 0 318.719C34.973 326.931 66.368 346.646 93.381 370.329C112.864 387.411 130.337 406.61 147.372 426.089C155.825 435.755 163.944 445.804 172.783 455.121C178.108 460.734 187.051 469.751 195.371 462.953C203.534 456.282 186.21 441.921 181.706 436.712Z" fill="#F4A4C7"/>
<path d="M313.879 482.198C326.058 447.174 339.59 412.313 359.424 380.983C379.258 349.652 405.881 321.795 439.159 305.438C409.691 325.986 387.798 355.901 371.442 387.887C359.645 410.957 350.499 435.252 341.863 459.646C337.578 471.751 333.744 484.087 328.971 496.01C326.095 503.193 321.115 514.876 310.872 511.632C300.822 508.448 311.618 488.702 313.879 482.198Z" fill="#F4A4C7"/>
<path d="M100.944 177.845C107.333 177.845 112.513 172.665 112.513 166.276C112.513 159.887 107.333 154.707 100.944 154.707C94.5546 154.707 89.375 159.887 89.375 166.276C89.375 172.665 94.5546 177.845 100.944 177.845Z" stroke="#333333" stroke-width="0.5" stroke-miterlimit="10" stroke-linecap="round" stroke-linejoin="round"/>
<path d="M321.581 53.8528C327.97 53.8528 333.15 48.6732 333.15 42.2838C333.15 35.8945 327.97 30.7148 321.581 30.7148C315.191 30.7148 310.012 35.8945 310.012 42.2838C310.012 48.6732 315.191 53.8528 321.581 53.8528Z" stroke="#333333" stroke-width="0.5" stroke-miterlimit="10" stroke-linecap="round" stroke-linejoin="round"/>
<path d="M342.865 78.3099C344.929 78.3099 346.602 76.6368 346.602 74.5729C346.602 72.509 344.929 70.8359 342.865 70.8359C340.801 70.8359 339.128 72.509 339.128 74.5729C339.128 76.6368 340.801 78.3099 342.865 78.3099Z" fill="#333333"/>
<path d="M108.776 120.433C110.84 120.433 112.513 118.76 112.513 116.696C112.513 114.632 110.84 112.959 108.776 112.959C106.712 112.959 105.039 114.632 105.039 116.696C105.039 118.76 106.712 120.433 108.776 120.433Z" fill="#333333"/>
<path d="M334.31 87.2745C334.31 87.2745 325.082 81.9605 324.369 83.7955C323.658 85.6285 341.139 95.1715 343.757 95.6245C346.376 96.0785 334.31 87.2745 334.31 87.2745Z" fill="#F8B09A"/>
<path d="M331.221 88.3332C331.221 88.3332 323.825 85.1972 322.818 87.7852C321.811 90.3752 336.747 93.8862 337.371 95.5772C337.994 97.2692 338.538 106.95 337.742 109C336.945 111.051 344.514 100.574 343.038 96.5702C341.564 92.5662 331.221 88.3332 331.221 88.3332Z" fill="#F8B09A"/>
<path d="M326.396 113.46L339.285 100.277L335.659 96.7315L322.769 109.914L326.396 113.46Z" fill="#08A5D9"/>
<path d="M342.779 89.4632L346.405 93.0078L358.044 81.1014L354.417 77.5568L342.779 89.4632Z" fill="#A6D9E7"/>
<path d="M335.652 96.7507L339.275 100.295L346.396 93.0144L342.772 89.4701L335.652 96.7507Z" fill="#BCE6FA"/>
<path d="M341.454 90.821L345.078 94.3652L345.748 93.6804L342.124 90.1361L341.454 90.821Z" fill="#E73B5C"/>
<path d="M339.345 92.9811L342.969 96.5254L343.639 95.8398L340.015 92.2956L339.345 92.9811Z" fill="#E73B5C"/>
<path d="M349.434 82.6546L353.061 86.1992L353.73 85.5142L350.104 81.9695L349.434 82.6546Z" fill="#185377"/>
<path d="M276.993 119.069C284.074 117.846 299.349 122.847 315.591 151.321C333.033 181.893 345.825 199.471 348.286 196.777C350.537 194.315 343.871 136.238 342.793 125.587C341.708 123.691 340.681 122.179 339.757 121.174C332.721 113.515 330.971 111.426 329.498 107.427C328.025 103.43 327.833 93.0639 329.854 94.0039C331.876 94.9449 331.387 98.7059 332.804 102.551C334.22 106.395 336.956 106.35 337.679 106.056C340.893 104.748 344.084 95.1359 341.585 92.9209C338.634 90.3039 327.566 84.8979 330.94 83.4099C334.312 81.9219 344.357 89.0009 345.518 92.1529C346.681 95.3059 346.391 110.901 348.343 116.197C348.343 116.197 380.145 219.814 362.084 228.233C331.086 242.683 281.004 160.044 281.004 160.044L275.564 119.435C275.992 119.284 276.47 119.16 276.993 119.069Z" fill="#FAC4B3"/>
<path d="M237.604 320.498L225.71 681.59L252.738 698.5L206.505 692.617L210.773 673.503H206.505L190.147 367.657L207.218 325.015L237.604 320.498Z" fill="#DD3A8F"/>
<path d="M162 324.215V696.254L131.417 719.604L173.381 711.042V697.033H180.494L213.213 324.215H162Z" fill="#EB509C"/>
<path d="M210.486 110.062C210.486 110.062 182.203 99.5567 166.507 105.449C154.647 109.902 131.282 125.694 143.357 195.903C150.643 238.265 154.177 346.786 154.177 346.786H239.318C239.318 346.785 242.582 134.996 210.486 110.062Z" fill="#F4E22D"/>
<path d="M219.505 252.576C210.828 233.559 191.702 178.566 221.649 129.4C241.761 188.328 239.318 346.784 239.318 346.784H212.901C214.208 317.431 216.306 285.613 219.505 252.576Z" fill="#E8CF1F"/>
<path d="M211.976 56.7288L210.487 110.063C210.487 115.102 211.77 120.709 209.577 122.356C204.49 126.177 188.679 118.265 181.585 110.501C175.79 104.16 189.971 55.0988 189.971 55.0988C189.971 55.0988 202.89 54.1108 211.976 56.7288Z" fill="#FAC4B3"/>
<path d="M189.971 55.0965C189.971 55.0965 189.466 57.1935 188.679 60.6595C188.893 65.6675 189.449 73.4035 190.892 79.1895C192.819 86.9145 201.71 100.057 210.73 101.326L211.976 56.7275C202.89 54.1095 189.971 55.0965 189.971 55.0965Z" fill="#F8B09A"/>
<path d="M221.279 19.1997C221.279 19.1997 231.348 21.1517 231.779 35.2407C232.209 49.3297 224.195 87.8457 213.902 90.8467C203.609 93.8487 192.304 79.7567 190.183 71.9127C187.977 63.7507 188.109 51.1227 188.109 51.1227C188.109 51.1227 190.05 0.443659 221.279 19.1997Z" fill="#FAC4B3"/>
<path d="M195.32 9.23997L200.954 20.232C202.67 32.451 196.99 32.628 193.996 39.023C193.781 39.481 193.596 39.925 193.433 40.354C192.823 39.459 192.055 38.695 191.152 38.542C188.773 38.143 186.518 39.751 186.119 42.13C185.72 44.511 187.324 46.765 189.705 47.163C190.583 47.311 191.534 46.867 192.384 46.245C192.4 48.839 188.348 58.947 188.348 58.947C184.029 55.274 182.783 52.586 183.405 43.918C183.789 38.581 179.978 37.429 181.991 22.323C184.211 5.68797 195.32 9.23997 195.32 9.23997Z" fill="#0D101B"/>
<path d="M235.562 25C234.873 30.418 231.795 36.473 231.795 36.473C232.073 33.29 230.772 28.325 229.644 26.397C229.645 26.397 233.72 26.325 235.562 25Z" fill="#0D101B"/>
<path d="M200.954 20.2321C200.954 20.2321 205.75 26.0851 218.333 28.1741C227.184 29.6461 234.832 29.0691 239.062 21.5631C246.755 7.90907 235.338 -3.25393 224.723 0.86807C221.316 2.19207 221.186 5.30907 221.156 7.35707C221.156 7.35707 216.213 7.81707 210.598 3.58007C202.461 -2.55893 195.036 7.30907 195.321 9.24007L200.954 20.2321Z" fill="#0D101B"/>
<path d="M190.815 33.3033C187.707 32.7113 180.066 34.8143 185.818 45.9853C191.57 57.1563 197.556 46.1543 197.089 41.3513C196.622 36.5483 193.197 33.7563 190.815 33.3033Z" fill="#FAC4B3"/>
<path d="M317.239 352.965C317.239 352.965 286.936 590.194 299.593 675.823C300.774 683.812 306.009 690.303 313.095 692.618C314.791 693.171 316.518 693.843 318.135 694.654C324.908 698.051 324.863 700.523 318.699 700.523C315.84 700.523 301.763 700.195 294.707 700.195C287.651 700.195 286.239 700.214 286.239 698.669C286.239 697.125 288.238 681.859 287.405 677.665C284.939 665.261 261.475 549.905 272.791 513.823L263.031 415.64L305.692 349.963L317.239 352.965Z" fill="#F8B09A"/>
<path d="M318.7 700.521C324.864 700.521 324.909 698.05 318.136 694.652C317.283 694.223 316.398 693.836 315.506 693.482C314.21 695.451 312.412 697.439 310.426 697.439C307.449 697.439 294.358 694.825 286.858 692.152C286.54 695.42 286.24 698.07 286.24 698.667C286.24 700.212 287.652 700.193 294.708 700.193C301.764 700.193 315.841 700.521 318.7 700.521Z" fill="#663870"/>
<path d="M285.33 304.961C285.33 304.961 251.457 334.613 245.248 356.234C239.039 377.854 244.684 470.518 244.684 482.255C244.684 493.991 228.878 521.791 224.361 532.292C220.043 542.334 226.675 650.032 226.675 682.404C226.675 690.435 221.539 700.937 221.539 706.497C221.539 710.022 231.805 712.317 236.991 707.577C239.986 704.84 239.166 694.343 239.166 694.343C239.166 694.343 236.78 687.964 236.78 679.317C236.78 670.705 263.313 537.225 263.313 522.409C263.313 507.583 270.088 489.051 270.088 489.051L315.25 338.937L285.33 304.961Z" fill="#FAC4B3"/>
<path d="M239.165 694.344C239.16 694.457 238.456 707.314 231.981 704.995C227.959 703.556 225.329 699.182 223.906 696.051C222.691 700.118 221.538 703.863 221.538 706.498C221.538 712.058 238.375 714.04 238.375 714.04C238.375 714.04 240.707 700.856 239.165 694.344Z" fill="#663870"/>
<path d="M261.554 115.102C261.554 115.102 273.417 116.238 279.286 122.66C285.153 129.081 310.76 151.846 310.76 167.607C310.76 183.368 299.57 189.849 299.57 193.934C299.57 198.021 309.041 234.6 309.041 266.707C309.041 298.812 334.764 513.769 334.764 513.769C334.764 513.769 227.954 514.709 225.287 511.789C222.62 508.872 216.008 361.083 235.08 200.552C237.456 180.56 229.125 128.191 242.878 119.835L261.554 115.102Z" fill="#7BCCCD"/>
<path d="M144.962 143.25C148.875 123.987 160.934 121.068 172.315 124.961C176.049 126.238 191.163 137.025 202.543 165.822C213.923 194.621 224.553 252.088 235.935 255.98C247.315 259.87 284.44 249.785 289.523 249.339V249.342C291.773 246.293 293.647 242.502 294.558 241.629C296.032 240.219 303.416 239.057 304.794 239.801C306.173 240.546 299.154 244.11 299.154 244.11C299.154 244.11 304.578 245.567 308.585 241.848C312.593 238.128 317.966 225.88 319.688 226.812C320.675 227.344 320.057 229.467 319.348 231.187C318.687 232.501 318.238 233.528 318.238 233.528C318.238 233.528 318.818 232.469 319.348 231.187C320.754 228.385 323.137 224.27 324.265 225.947C325.923 228.411 321.21 236.014 321.21 236.014C321.21 236.014 325.317 229.85 326.811 230.655C328.304 231.462 323.302 239.056 323.302 239.056C323.302 239.056 327.025 235.036 328.288 235.717C329.551 236.398 315.595 252.112 310.91 254.877C307.537 256.866 243.215 284.038 228.718 282.419C211.29 280.474 141.051 162.514 144.962 143.25Z" fill="#FAC4B3"/>
<path d="M205.144 183.054C206.273 182.687 207.297 182.491 208.225 182.443C210.224 188.933 212.231 195.971 214.242 203.072C207.862 207.978 192.567 219.507 186.319 232.573C181.798 225.681 176.918 217.821 172.662 210.72C181.771 197.864 196.214 185.957 205.144 183.054Z" fill="#F8B09A"/>
<path d="M162.255 109.539C162.255 109.539 174.146 106.904 185.131 119.617C196.117 132.331 214.985 190.96 214.985 190.96L173.862 217.444C173.862 217.444 143.358 164.43 143.358 142.226C143.357 120.022 156.458 109.539 162.255 109.539Z" fill="#F4E22D"/>
<path d="M143.357 142.227C144.573 128.444 148.948 119.895 154.719 114.89C159.353 110.91 161.949 111.344 162.3 111.233C185.339 111.857 188.142 123.46 214.983 190.961C210.394 173.78 196.603 128.667 184.948 116.706C178.862 110.293 170.505 106.478 161.979 107.876L162.252 107.846C153.415 108.672 142.673 121.726 143.357 142.227Z" fill="#FFF7D0"/>
<path d="M272.47 67.0817C273.413 66.6997 299.018 86.3367 300.674 95.3227C302.331 104.309 297.922 106.997 297.922 106.997C297.922 106.997 307.016 108.528 303.25 117.07C299.485 125.611 280.967 127.004 277.638 123.613C274.307 120.224 276.055 107.825 276.055 107.825C276.055 107.825 246.54 77.6117 272.47 67.0817Z" fill="#0D101B"/>
<path d="M293.846 106.039C288.251 107.947 282.564 106.527 277.721 100.317C274.514 95.9813 274.343 95.3693 268.317 92.1863C270.99 92.0113 273.744 92.4983 276.105 93.9653C281.836 97.5433 281.127 103.49 293.846 106.039Z" fill="#141A26"/>
<path d="M279.37 123.479C275.702 105.773 278.442 76.6017 278.442 76.6017L259.743 68.9277C259.743 68.9277 254.486 121.393 255.232 121.391C261.54 133.03 280.257 132.14 279.37 123.479Z" fill="#FAC4B3"/>
<path d="M259.742 68.9277L278.441 76.6017C278.441 76.6017 277.836 83.0457 277.575 91.7137C272.597 90.2637 267.486 86.9897 263.682 83.2907C261.725 81.3877 260.127 79.7447 258.828 78.2037C259.364 72.6927 259.742 68.9277 259.742 68.9277Z" fill="#F8B09A"/>
<path d="M300.673 35.334C300.673 35.334 286.493 54.771 280.666 57.173C274.839 59.575 261.805 63.315 261.805 63.315C261.805 63.315 257.53 91.714 256.962 97.813C256.962 97.813 233.306 93.439 242.973 49.963C246.659 33.389 248.249 22.864 263.678 15.725C279.108 8.58601 295.592 19.382 300.673 35.334Z" fill="#0D101B"/>
<path d="M279.358 151.32C279.358 151.32 281.435 160.248 280.387 163.315C279.34 166.381 266.759 164.87 267.695 172.523C268.632 180.174 272.616 176.507 272.616 176.507C272.616 176.507 271.746 182.368 268.324 180.776C264.901 179.183 264.93 175.14 264.93 175.14C264.93 175.14 262.564 178.117 263.81 180.923C263.81 180.923 259.966 179.042 259.773 173.286C259.577 167.53 261.488 163.223 265.016 163.107C266.534 163.06 267.633 161.508 268.395 159.757C269.907 156.276 272.896 153.653 276.463 152.365L279.358 151.32Z" fill="#141A26"/>
<path d="M289.096 29.9529C289.096 29.9529 299.155 33.6659 300.117 42.1189C301.079 50.5709 299.21 54.795 299.675 58.875C300.137 62.955 299.701 70.562 295.217 82.271C290.734 93.9799 275.498 87.352 266.765 78.959C256.934 69.51 256.02 66.6279 256.045 51.3829C256.069 36.1369 273.009 23.5409 289.096 29.9529Z" fill="#FAC4B3"/>
<path d="M298.684 22.0585C298.684 22.0585 306.668 23.4635 305.691 31.8645C304.714 40.2655 285.58 50.4405 272.469 48.7475C267.552 48.1125 267.647 51.2925 265.773 53.3735C262.65 56.8435 259.979 61.0935 262.947 67.6545C267.695 78.1515 271.838 72.5735 271.838 72.5735C271.838 72.5735 268.151 78.9835 256.609 75.6295C245.069 72.2765 243.136 53.7995 251.385 42.9315C259.634 32.0625 268.305 26.9045 275.364 24.2015C290.677 18.3375 298.684 22.0585 298.684 22.0585Z" fill="#141A26"/>
<path d="M261.418 50.9883C262.759 50.9883 268.632 55.2293 267.189 59.7913C265.747 64.3533 264.255 64.7083 260.485 62.6593C256.715 60.6123 258.026 50.9883 261.418 50.9883Z" fill="#FAC4B3"/>
<path d="M290.142 107.763C290.142 107.763 300.446 102.946 304.165 111.097C307.884 119.247 297.812 129.176 293.639 130.658C293.639 130.658 298.538 133.77 294.341 140.883C290.142 147.996 279.4 151.257 279.4 151.257C279.4 151.257 266.082 133.256 271.861 128.436C277.639 123.614 279.4 125.324 279.4 125.324C279.4 125.324 270.026 118.287 276.056 111.69C282.083 105.092 290.142 107.763 290.142 107.763Z" fill="#141A26"/>
<path d="M283.109 149.957C283.195 152.465 281.497 154.556 279.32 154.626C277.142 154.698 275.308 152.722 275.223 150.214C275.139 147.706 276.835 145.616 279.012 145.543C281.191 145.473 283.025 147.449 283.109 149.957Z" fill="#EB509C"/>
<path d="M233.814 125.702C237.742 119.231 246.334 117.671 251.74 122.823C254.558 125.508 257.077 129.168 258.157 134.075C261.242 148.098 240.242 217.237 240.242 229.108C240.242 240.979 260.659 242.66 279.535 239.173C295.768 236.175 302.425 234.859 304.973 234.312C309.755 229.529 316.532 219.418 320.05 219.418C323.569 219.418 334.24 228.464 334.24 228.464C334.24 228.464 337.068 230.474 337.068 231.856C337.068 232.646 334.704 231.627 332.682 230.61C334.87 231.898 337.46 233.733 337.019 234.998C336.844 235.496 336.229 235.527 335.388 235.281C336.773 236.451 337.522 237.627 336.634 238.515C333.997 241.154 326.811 230.658 324.35 234.495C321.888 238.33 312.578 241.863 312.578 241.863C283.796 256.627 274.439 256.865 264.092 258.078C252.258 259.464 234.4 260.966 232.974 259.464C231.621 258.035 196.904 186.536 233.814 125.702Z" fill="#F8B09A"/>
</svg>
