<?xml version="1.0" encoding="utf-8"?>
<!-- Generator: Adobe Illustrator 17.0.0, SVG Export Plug-In . SVG Version: 6.00 Build 0)  -->
<!DOCTYPE svg PUBLIC "-//W3C//DTD SVG 1.1//EN" "http://www.w3.org/Graphics/SVG/1.1/DTD/svg11.dtd">
<svg version="1.1" id="Layer_1" xmlns="http://www.w3.org/2000/svg" xmlns:xlink="http://www.w3.org/1999/xlink" x="0px" y="0px"
	 width="700.465px" height="605.97px" viewBox="0 0 700.465 605.97" enable-background="new 0 0 700.465 605.97"
	 xml:space="preserve">
<g>
	<path fill="#FCEDF3" d="M430.502,475.585c-13.007,7.008-27.13,11.797-40.017,19.023c-22.99,12.889-41.289,33.09-64.546,45.491
		c-24.002,12.799-51.991,16.505-79.165,15.286c-28.778-1.291-57.793-8.096-82.189-23.415
		c-24.396-15.319-43.772-39.779-49.297-68.051c-5.292-27.084,2.143-55.14-0.626-82.596c-2.88-28.555-16.56-54.774-24.06-82.477
		c-7.173-26.492-8.633-54.516-4.252-81.61c4.092-25.312,13.472-50.141,29.675-70.014c16.203-19.873,39.62-34.427,65.109-37.218
		c35.277-3.862,69.168,14.337,104.522,17.422c17.26,1.506,34.627-0.621,51.949-0.239c30.542,0.673,60.874,9.315,87.185,24.839
		c22.24,13.122,42.222,32.073,50.614,56.495c5.827,16.957,5.713,35.279,6.232,53.202c1.001,34.541,3.049,70.93,11.36,104.585
		c6.788,27.488-3.846,51.598-21.026,73.839C460.776,454.639,446.636,466.892,430.502,475.585z"/>
	<g>
		<defs>
			<path id="SVGID_7_" d="M430.502,475.585c-13.007,7.008-27.13,11.797-40.017,19.023c-22.99,12.889-41.289,33.09-64.546,45.491
				c-24.002,12.799-51.991,16.505-79.165,15.286c-28.778-1.291-57.793-8.096-82.189-23.415
				c-24.396-15.319-43.772-39.779-49.297-68.051c-2.334-11.943,0.463-25.361-3.535-36.616c-3.475-9.78-12.279-16.91-19.708-23.66
				c-22.476-20.419-43.627-47.524-39.745-79.766c0.891-7.4,3.008-14.615,3.84-22.022c3.349-29.8-14.049-57.572-20.871-86.774
				c-3.114-13.331-3.868-31.227,5.258-42.589c8.371-10.423,27.485-17.862,39.446-23.59c16.82-8.055,37.324-10.158,52.987-18.371
				c16.456-8.629,28.781-18.403,48.175-20.527c35.277-3.862,69.168,14.337,104.522,17.422c17.26,1.506,34.627-0.621,51.949-0.239
				c22.874,0.504,45.63,5.476,66.666,14.464c17.532,7.491,32.152,12.132,51.134,11.646c20.451-0.524,41.084-0.334,61.181,3.934
				c13.508,2.868,26.812,7.647,37.971,15.782c11.159,8.135,20.05,19.88,22.967,33.377c3.179,14.707-0.824,29.909-4.801,44.421
				c-4.186,15.278-8.373,30.556-12.559,45.834c-1.075,3.922-2.159,7.991-1.518,12.007c2.116,13.26,19.678,16.715,28.732,26.631
				c2.009,2.201,3.663,4.942,3.692,7.922c0.033,3.398-2.008,6.424-3.968,9.2c-17.335,24.565-43.183,38.716-70.952,49.805
				c-21.115,8.467-30.398,20.094-44.181,37.937C460.776,454.639,446.636,466.892,430.502,475.585z"/>
		</defs>
		<clipPath id="SVGID_2_">
			<use xlink:href="#SVGID_7_"  overflow="visible"/>
		</clipPath>
		<g clip-path="url(#SVGID_2_)">
			<g>
				<path fill="#F9D3E3" d="M386.001,349.891c20.254-34.199,43.235-67.1,71.718-94.821c28.483-27.722,62.775-50.184,101.01-61.039
					c-17.069,18.796-26.806,43.104-33.668,67.549c-6.862,24.445-11.204,49.596-19.312,73.656
					c-14.718,43.676-41.489,82.51-72.756,116.372c-15.991,17.318-33.206,33.461-50.94,48.974
					c-12.039,10.531-29.504,32.015-47.662,29.993c-28.541-3.178,9.281-94.857,15.903-110.635
					C360.447,395.752,372.64,372.452,386.001,349.891z"/>
				
					<path fill="none" stroke="#000000" stroke-width="0.5" stroke-linecap="round" stroke-linejoin="round" stroke-miterlimit="10" d="
					M558.729,194.031c0,0-158.93,143.982-224.337,336.544"/>
			</g>
			<g>
				<path fill="#F9D3E3" d="M202.274,371.894c-14.004-37.198-30.917-73.591-54.15-105.841
					c-23.233-32.25-53.099-60.329-88.867-77.663c13.543,21.476,18.908,47.106,21.418,72.372c2.509,25.265,2.416,50.789,6.219,75.891
					c6.905,45.569,26.52,88.464,51.427,127.244c12.739,19.834,26.886,38.722,41.655,57.081
					c10.026,12.463,23.492,36.655,41.725,37.819c28.659,1.83,7.343-95.027,3.564-111.715
					C219.47,421.497,211.512,396.433,202.274,371.894z"/>
				
					<path fill="none" stroke="#000000" stroke-width="0.5" stroke-linecap="round" stroke-linejoin="round" stroke-miterlimit="10" d="
					M59.256,188.39c0,0,131.493,169.409,162.444,370.406"/>
			</g>
			<path fill="#F4A4C7" d="M366.905,496.959c28.248-32.668,57.89-64.579,92.834-89.957c34.944-25.379,75.743-44.079,118.797-47.468
				c-40.733,9.565-77.298,32.526-108.759,60.11c-22.692,19.895-43.042,42.256-62.882,64.943
				c-9.845,11.258-19.301,22.962-29.596,33.813c-6.202,6.538-16.618,17.04-26.308,9.121
				C341.482,519.752,361.66,503.025,366.905,496.959z"/>
			<path fill="#F4A4C7" d="M212.964,549.936c-14.185-40.792-29.945-81.394-53.046-117.884c-23.1-36.49-54.107-68.937-92.866-87.988
				c34.321,23.933,59.819,58.775,78.869,96.029c13.739,26.87,24.392,55.165,34.45,83.577c4.991,14.098,9.456,28.467,15.015,42.353
				c3.349,8.366,9.15,21.972,21.079,18.193C228.172,580.508,215.598,557.512,212.964,549.936z"/>
		</g>
	</g>
	<g>
		
			<circle fill="none" stroke="#333333" stroke-width="0.5" stroke-linecap="round" stroke-linejoin="round" stroke-miterlimit="10" cx="460.968" cy="181.985" r="13.475"/>
		
			<circle fill="none" stroke="#333333" stroke-width="0.5" stroke-linecap="round" stroke-linejoin="round" stroke-miterlimit="10" cx="203.994" cy="37.572" r="13.475"/>
		<circle fill="#333333" cx="179.205" cy="75.179" r="4.352"/>
		<circle fill="#333333" cx="451.846" cy="124.239" r="4.352"/>
	</g>
</g>
<g>
	<path fill-rule="evenodd" clip-rule="evenodd" fill="#FAC4B3" d="M328.888,241.656c0,0-3.18-68.373-52.927-74.96
		c-49.746-6.587-71.236,38.04-81.705,62.089c-10.468,24.049-53.895,109.844-69.564,127.206
		c-15.671,17.363-66.748,39.75-74.798,124.839c0,0-1.846,38.718-5.458,49.361c-3.611,10.643-13.861,22.75-3.715,29.555
		c10.145,6.804,15.731-7.403,28.109-2.729c12.379,4.674,24.136,5.954,33.29,1.536c9.152-4.418,4.57-5.868-1.622-7.119
		c-6.19-1.253-38.809-11.861-35.538-25.784c3.271-13.923,20.111-59.511,73.11-114.748c53.001-55.236,92.36-112.71,116.958-138.65
		c24.6-25.942,15.841-16.322,22.14-4.473C277.167,267.779,301.145,239.784,328.888,241.656z"/>
	<path fill-rule="evenodd" clip-rule="evenodd" fill="#F8B09A" d="M142.525,361.548c0,0-37.199,21.511-43.344,56.283
		c-6.147,34.773-0.166,54.723-5.177,76.933c-5.013,22.209-10.026,35.148,8.735,32.075c18.762-3.074,10.346,1.424,27.629,1.159
		c17.283-0.265,17.086-3.997,14.779-5.099c-2.308-1.102-38.478-9.276-35.594-16.494c2.884-7.219,21.603-69.457,53.172-108.843
		c31.569-39.388,7.76-8.325,56.602-73.542c48.841-65.219,50.812-84.41,59.792-89.113c8.977-4.703,2.739-1.734,2.739-1.734
		l-90.067,56.436L142.525,361.548z"/>
	<path fill-rule="evenodd" clip-rule="evenodd" fill="#FAC4B3" d="M277.165,267.764c0,0,10.521,28.247,11.649,73.494
		c1.13,45.247,6.442,67.265,33.751,72.477c31.265,5.967,29.606-4.039,63.78,16.647c0,0,8.567-51.133,10.905-55.929
		c2.339-4.797-58.787-87.268-68.355-132.789l-27.106-21.888L277.165,267.764z"/>
	<path fill-rule="evenodd" clip-rule="evenodd" fill="#009898" d="M281.883,233.174l-90.094,56.447l-49.266,71.907
		c0,0-37.197,21.516-43.344,56.288c-3.905,22.09-2.995,38.011-3.039,52.516c4.185,2.757,12.535,5.916,25.68,2.882
		c9.08-23.057,22.494-52.686,40.88-75.627c31.569-39.387,7.762-8.366,56.603-73.584c26.313-35.134,39.822-54.789,48.09-66.18
		c7.079-9.754,10.318-13.451,14.459-15.619C290.832,237.499,281.883,233.174,281.883,233.174z"/>
	<path fill-rule="evenodd" clip-rule="evenodd" fill="#0CADB9" d="M266.944,166.036c-43.387-0.437-62.879,40.189-72.692,62.735
		c-10.469,24.049-53.88,109.838-69.549,127.2c-15.669,17.363-66.74,39.751-74.79,124.842c0,0-0.508,9.268-1.31,19.391
		c0,0,8.458,6.184,25.628,0.367c0.019-0.007,0.087-0.045,0.106-0.052c10.051-21.712,29.082-53.511,63.731-89.623
		c52.999-55.237,92.38-112.685,116.98-138.625c24.599-25.942,15.817-16.355,22.116-4.508c0,0,23.988-27.971,51.729-26.099
		c0,0-3.188-68.359-52.934-74.947C272.851,166.306,269.838,166.066,266.944,166.036z"/>
	<path fill-rule="evenodd" clip-rule="evenodd" fill="#F4E22D" d="M344.356,281.758c-32.124,17.997-49.953,23.134-58.596,24.633
		c1.466,10.13,2.705,21.442,3.041,34.853c1.13,45.247,6.444,67.271,33.752,72.484c31.265,5.967,29.61-4.018,63.783,16.666
		c0,0,8.564-51.124,10.901-55.92C398.98,370.898,365.5,324.166,344.356,281.758z"/>
	<path fill="none" stroke="#366B68" stroke-linecap="round" stroke-linejoin="round" d="M61.766,501.513
		c0,0,17.514-70.524,81.809-121.134c64.295-50.613,98.124-128.928,118.248-151.268c20.122-22.341,23.476,0.79,29.192,24.267"/>
	<path fill-rule="evenodd" clip-rule="evenodd" fill="#0D101B" d="M484.452,434.528c0,0-1.275-43.019,40.126-41.209
		c41.402,1.811,34.15,33.875,25.977,45.972c-8.171,12.097-20.962,42.065,56.444,46.005c79.161,4.029,81.395,21.109,58.25,34.702
		c-30.541,17.93-155.302,29.635-146.859-25.922c8.441-55.557-0.142-59.808-25.613-57.663
		C467.307,438.559,484.452,434.528,484.452,434.528z"/>
	<g>
		<path fill-rule="evenodd" clip-rule="evenodd" fill="#FAC4B3" d="M434.383,467.296c26.085,13.154,27.8,29.86,27.8,29.86
			s-18.802,8.708-33.026-4.19c-10.07-9.132-16.865-4.148-19.004-6.244c-1.429-1.402,0.005-2.814-1.407-4.07
			c-1.411-1.256-14.373-12.879-12.61-18.979c1.763-6.1,6.391-11.39,9.628-17.207C407.473,443.39,408.298,454.143,434.383,467.296z"
			/>
		<path fill-rule="evenodd" clip-rule="evenodd" fill="#EB509C" d="M476.496,442.025c-1.753-4.535,0.47-9.466,4.966-11.015
			c4.496-1.55,9.561,0.87,11.316,5.404c1.754,4.535-0.47,9.466-4.966,11.015C483.317,448.979,478.25,446.558,476.496,442.025z"/>
		<path fill-rule="evenodd" clip-rule="evenodd" fill="#F8B09A" d="M410.703,442.406c-0.236-0.025-0.416,0.139-0.629,0.525
			c-2.085,3.747-5.114,4.919-8.448,10.135c10.259,11.664,31.431,35.17,46.926,47.337c10.777,2.298,17.915-6.792,17.915-6.792
			s-1.692-16.719-27.778-29.873C415.866,452.227,412.364,442.584,410.703,442.406z"/>
		<path fill-rule="evenodd" clip-rule="evenodd" fill="#0D101B" d="M444.221,499.804c0,0,10.997-4.543,10.764-14.011
			c-0.231-9.466-23.321-14.935-26.638-31.042c-3.319-16.107-19.099-30.027,0.81-37.598c19.911-7.571,42.471,0.807,50.918,10.94
			C501.81,454.168,488.638,507.833,444.221,499.804z"/>
		<path fill-rule="evenodd" clip-rule="evenodd" fill="#FAC4B3" d="M375.361,424.731c0,0-5.873-1.944-26.789-16.468
			c-20.916-14.524-15.012-37.348-10.957-47.659c4.055-10.311,31.567-36.209,77.762,34.499c46.197,70.71,50.94,52.327,77.083,76.422
			c26.143,24.094,59.76,55.402,76.957,60.224c17.196,4.82,16.173-1.442,25.823-3.738c4.629-1.104,0.319,3.326-1.66,6.682
			c-1.749,2.952,5.87,2.997,13.232,4.416c7.362,1.42,8.034,3.624,1.107,3.46c-6.927-0.165-2.197,0.847,3.287,2.244
			c5.484,1.395,14.457,1.684,9.577,3.636c-4.109,1.64-19.371-2.311-16.671-0.73c2.7,1.58,19.69,2.89,16.218,5.02
			c-3.824,2.339-19.757,0.854-15.698,2.316c6.256,2.251,23.296,4.662,3.606,5.442c-16.312,0.646-16.003-1.109-40.669-7.919
			c-22.785-6.293-88.316-37.652-110.931-53.663c-14.71-10.415-33.415-27.104-52.015-45.018
			C394.625,444.266,384.659,434.283,375.361,424.731z"/>
		<path fill="none" stroke="#F8B09A" stroke-linecap="round" stroke-linejoin="round" d="M376.562,424.784
			c0,0-12.055-14.967-22.403-20.986"/>
		<path fill="none" stroke="#F8B09A" stroke-linecap="round" stroke-linejoin="round" d="M443.094,479.18
			c0,0,0.651-1.348,2.554,0.111c1.905,1.458,2.014,4.637-0.679,3.702c-2.693-0.934-4.792-3.75-4.085-5.848
			c0.706-2.1,6.11-1,7.381,1.385"/>
		<path fill-rule="evenodd" clip-rule="evenodd" fill="#F48F91" d="M404.273,474.842c-0.092-1.263,0.891-2.073,2.195-1.809
			c1.305,0.265,2.437,1.503,2.531,2.767c0.092,1.263-0.891,2.073-2.195,1.809C405.499,477.344,404.366,476.106,404.273,474.842z"/>
	</g>
	<path fill="none" stroke="#2B3D3C" stroke-linecap="round" stroke-linejoin="round" d="M109.698,472.975
		c0,0,3.447-24.828,23.715-55.641"/>
	<path fill-rule="evenodd" clip-rule="evenodd" fill="#E8CF1F" d="M305.572,329.399c-2.786-1.258-10.437,3.475-16.981,8.649
		c0.042,1.119,0.181,2.048,0.21,3.197c0.444,17.843,1.615,31.963,4.454,42.977c-2.042-8.211-3.445-22.826,7.495-40.041
		C306.877,334.539,307.64,330.333,305.572,329.399z"/>
</g>
<g>
	<g>
		<g>
			<path fill="#FAC3B3" d="M247.364,490.43c-0.5-3.15-2.137-5.988-3.772-8.726c-3.999-6.696-8.169-13.291-12.504-19.774
				c-0.884-1.323-1.867-2.715-3.353-3.285c-1.647-0.631-3.58-0.056-4.924,1.087c-1.345,1.142-2.188,2.766-2.814,4.416
				c-2.819,7.427-1.628,16.244,3.059,22.657c-3.859,8.094-5.573,21.814-3.923,28.178c0.686,2.646,2.003,5.328,4.391,6.659
				c2.974,1.657,14.368,1.733,17.605,0.676C252.336,518.66,247.948,494.114,247.364,490.43z"/>
			<path fill="#FAC3B3" d="M233.828,452.319c-0.02,0.038-0.033,0.079-0.05,0.119c-0.068-0.03-0.136-0.058-0.207-0.082
				c0.046-0.111,0.072-0.229,0.061-0.348c-0.023-0.256-0.351-0.511-0.608-0.513c-0.321-0.002-0.678,0.327-0.707,0.646
				c-0.001,0.006-0.001,0.012-0.001,0.017c-0.68-0.008-1.445,0.187-2.141,0.487c-1.409,0.607-2.646,1.569-4.165,1.787
				c-1.954,0.281-3.904-0.715-5.851-0.391c-2.715,0.452-4.44,3.637-3.756,6.303c0.684,2.666,3.335,4.556,6.073,4.83
				c2.739,0.274,5.485-0.859,7.62-2.596c1.446-1.177,2.656-2.621,3.733-4.143c0.018-0.025,0.036-0.052,0.054-0.077
				c0.316,0.022,0.629,0.093,0.92,0.216c0.213,0.09,0.42,0.206,0.649,0.242c0.494,0.078,1.003-0.28,1.148-0.759
				c0.145-0.479-0.049-1.027-0.429-1.352c-0.317-0.272-0.743-0.386-1.161-0.37c0.054-0.147,0.104-0.295,0.144-0.448
				c0.305,0.084,0.647,0.074,0.909-0.101c0.272-0.182,0.414-0.568,0.259-0.856c-0.187-0.347-0.671-0.387-1.05-0.268
				c-0.002-0.023-0.007-0.045-0.009-0.068c0.154-0.021,0.304-0.066,0.434-0.153c0.3-0.201,0.458-0.628,0.286-0.946
				c-0.214-0.396-0.781-0.435-1.206-0.286c0,0-0.009,0.004-0.014,0.006c-0.027-0.037-0.056-0.072-0.085-0.107
				c0.2-0.137,0.364-0.329,0.418-0.563c0.068-0.295-0.079-0.646-0.366-0.742C234.371,451.683,234.002,451.985,233.828,452.319z"/>
		</g>
		<path fill="#EB509C" d="M216.834,561.319c-3.842-3.971-5.355-9.356-6.126-14.558c-0.923-6.224-0.96-12.613,0.83-18.593
			c1.791-5.979,5.529-11.539,11.096-14.97c5.567-3.431,13.046-4.498,19.398-2.059c2.857,1.097,5.485,2.925,7,5.415
			c1.626,2.673,1.839,5.823,1.944,8.844c0.438,12.611-0.345,25.222-2.335,37.633c-0.291,1.812-0.687,3.762-2.156,4.968
			c-1.736,1.427-4.376,1.352-6.74,1.166C231.473,568.516,222.427,567.1,216.834,561.319z"/>
		<g>
			<g>
				<path fill="#FDE0D6" d="M257.615,511.198c-1.309-3.727-3.562-17.696-1.801-20.099c1.684-2.297,4.89-3.169,7.661-2.513
					c2.771,0.656,11.042,17.384,12.581,19.053c1.031,1.118,2.415,1.829,3.737,2.58c2.908,1.654,5.646,3.607,8.156,5.819
					c2.005,1.767,3.96,3.88,4.375,6.52c0.416,2.65-0.98,5.49-3.333,6.778c-2.615,1.431-5.859,0.93-8.686-0.018
					c-4.436-1.486-8.473-3.941-12.468-6.376c-2.642-1.61-5.347-3.276-7.234-5.728C259.231,515.433,258.36,513.32,257.615,511.198z"
					/>
				<path fill="#FAC3B3" d="M288.991,529.336c2.353-1.288,3.75-4.128,3.333-6.778c-0.415-2.64-2.37-4.753-4.375-6.52
					c-2.51-2.212-5.248-4.165-8.156-5.819c-0.693-0.394-1.403-0.779-2.07-1.215c-2.973,4.591-4.164,11.147-7.827,15.185
					c3.331,2,6.732,3.898,10.408,5.13C283.132,530.266,286.376,530.767,288.991,529.336z"/>
				<g>
					<path fill="#FDE0D6" d="M258.745,493.787c2.912-0.279,5.184-2.675,6.626-5.22c0.565-0.998,1.056-2.068,1.158-3.21
						c0.102-1.142-0.241-2.373-1.112-3.118c-1.341-1.147-3.423-0.799-4.969,0.051c-2.893,1.59-4.852,4.759-4.98,8.057
						c-0.04,1.036,0.141,2.182,0.928,2.857C257.024,493.744,257.919,493.866,258.745,493.787z"/>
					<path fill="#FDE0D6" d="M263.219,478.518c0.124,0.872,0.639,1.681,1.377,2.162c-0.451,0.874-0.699,1.852-0.718,2.835
						c-0.009,0.471,0.04,0.961,0.281,1.365c0.241,0.404,0.717,0.698,1.178,0.604c0.912-1.005,1.451-2.341,1.493-3.698
						c0.041-1.357-0.415-2.723-1.264-3.782c-0.262-0.327-0.573-0.634-0.966-0.777c-0.393-0.143-0.883-0.087-1.159,0.227
						C263.194,477.735,263.167,478.148,263.219,478.518z"/>
					<path fill="#FDE0D6" d="M259.533,478.536c0.322,0.82,1.01,1.489,1.839,1.786c-0.238,0.954-0.253,1.963-0.045,2.924
						c0.1,0.46,0.26,0.926,0.588,1.263c0.328,0.338,0.858,0.514,1.286,0.317c0.656-1.189,0.872-2.613,0.6-3.943
						c-0.273-1.33-1.032-2.554-2.102-3.389c-0.33-0.257-0.703-0.484-1.119-0.533c-0.416-0.049-0.879,0.119-1.076,0.489
						C259.328,477.78,259.397,478.187,259.533,478.536z"/>
					<path fill="#FDE0D6" d="M256.354,480.241c0.322,0.82,1.01,1.489,1.839,1.787c-0.238,0.954-0.253,1.963-0.045,2.924
						c0.1,0.46,0.26,0.926,0.588,1.263c0.328,0.338,0.858,0.514,1.286,0.317c0.656-1.189,0.872-2.613,0.6-3.943
						c-0.272-1.33-1.032-2.554-2.102-3.389c-0.33-0.257-0.703-0.484-1.119-0.534c-0.416-0.049-0.879,0.119-1.076,0.489
						C256.149,479.486,256.217,479.893,256.354,480.241z"/>
					<path fill="#FDE0D6" d="M254.345,483.367c0.322,0.82,1.009,1.489,1.839,1.787c-0.238,0.954-0.253,1.963-0.045,2.924
						c0.1,0.46,0.26,0.926,0.588,1.263c0.328,0.338,0.858,0.514,1.286,0.317c0.656-1.189,0.872-2.613,0.6-3.943
						c-0.272-1.33-1.032-2.554-2.102-3.389c-0.33-0.257-0.703-0.484-1.119-0.533s-0.879,0.119-1.076,0.488
						C254.141,482.611,254.209,483.019,254.345,483.367z"/>
				</g>
			</g>
			<path fill="#FAC3B3" d="M260.81,490.339c0.459-0.01,0.934-0.101,1.259-0.134c0.584-0.06,1.365-0.07,1.864-0.41
				c0.795-0.541,1.017-1.759,1.264-2.617c0.316-1.096,0.51-2.224,0.83-3.319c0.14-0.479-0.246-0.965-0.742-0.909
				c-0.543,0.061-1.065,0.319-1.423,0.733c-0.235,0.272-0.412,0.61-0.724,0.788c-0.518,0.295-1.157,0.065-1.71,0.289
				c-0.628,0.255-1.076,0.777-1.392,1.404c-0.547-0.318-1.15-0.37-1.876-0.555c-0.024-0.006-0.043,0.029-0.022,0.044
				c0.56,0.404,0.773,1.308,1.05,1.914c0.116,0.255,0.19,0.509,0.248,0.764c-0.027,0.243-0.045,0.479-0.051,0.697
				c-0.006,0.23,0,0.466,0.082,0.681c0.125,0.325,0.387,0.491,0.706,0.57C260.369,490.38,260.594,490.393,260.81,490.339z"/>
			<path fill="#FDE0D6" d="M264.94,484.302c0.271-0.236,0.377-0.603,0.554-0.915c0.269-0.477,0.73-0.832,1.25-1
				c0.475-0.153,0.95,0.247,0.907,0.744c-0.15,1.751-0.71,3.466-1.629,4.964c-0.309,0.505-0.667,0.994-1.148,1.339
				c-0.481,0.345-1.104,0.53-1.676,0.377c-0.562-0.808-1.023-1.734-1.031-2.718c-0.008-0.984,0.539-2.022,1.471-2.339
				C264.077,484.603,264.59,484.607,264.94,484.302z"/>
			<path fill="#FAC3B3" d="M275.393,509.773c0.083-0.535-0.692-0.855-0.926-0.322c-0.457,1.043-1.651,1.611-2.592,2.172
				c-0.974,0.581-2.04,1.043-3.129,1.356c-0.646,0.186-0.414,1.163,0.228,1.131C271.556,513.982,274.938,512.69,275.393,509.773z"/>
			<path fill="#FAC3B3" d="M258.69,491.955c0.563-0.236,1.179-0.21,1.747-0.411c0.125-0.044,0.12-0.2,0.017-0.264
				c-0.623-0.387-1.404-0.077-1.962,0.279C258.282,491.694,258.455,492.054,258.69,491.955z"/>
			<path fill="#FAC3B3" d="M270.022,511.596c0.245-0.19,0.062-0.64-0.255-0.509c-0.654,0.271-1.341,0.414-2.022,0.592
				c-0.414,0.108-0.227,0.665,0.137,0.682C268.672,512.396,269.404,512.074,270.022,511.596z"/>
		</g>
		<g>
			<path fill="#FAC3B3" d="M240.558,562.424c-3.499-4.431-4.436-10.357-4.551-16.002c-0.141-6.92,0.773-13.861,2.703-20.509
				c1.472-5.073,4.46-10.725,9.708-11.327c5.726-0.657,10.01,5.036,15.351,7.2c8.757,3.546,20.237-2.508,27.551,3.472
				c4.003,3.272,4.959,8.906,5.644,14.03c1.042,7.805,1.881,16.483-2.742,22.858c-2.885,3.979-7.538,6.387-12.321,7.516
				c-4.783,1.129-9.752,1.108-14.667,1.081c-4.828-0.026-9.703-0.058-14.405-1.157C248.129,568.489,243.55,566.213,240.558,562.424z
				"/>
			<path fill="#FDE0D6" d="M268.995,570.752c-0.587-0.001-1.174-0.004-1.761-0.007c-4.828-0.026-9.703-0.058-14.404-1.157
				c-4.701-1.099-9.28-3.375-12.272-7.163c-3.073-3.891-4.169-8.935-4.469-13.929c5.124,1.541,10.348,2.637,14.547,5.086
				C257.092,557.395,260.758,566.619,268.995,570.752z"/>
		</g>
		<g>
			<path fill="#FDE0D6" d="M359.802,497.984c-5.692-8.814-14.068-15.474-24.647-17.542c-5.288-1.034-10.346-0.781-15.674-0.518
				c-1.124,0.055-10.653,1.51-15.16,2.45c-1.418,0.296-2.908-0.037-4.036-0.945c-2.068-1.665-4.594-2.64-7.297-2.593
				c-6.872,0.119-11.019,6.032-13.147,11.919c-1.093,3.024-2.42,14.468-2.035,17.911c-3.219,4.703-2.524,12.158,1.66,16.027
				c2.349,13.122,5.258,27.795,13.64,38.161c2.754,3.406,6.75,6.569,11.07,5.85c-0.014,2.46,2.968,5.161,5.173,6.253
				c2.205,1.092,5.235,0.43,6.504-1.678c0.859-1.428,0.63-3.376-0.348-4.674c-0.266-0.352,0.043-0.837,0.476-0.749
				c15.338,3.088,32.951-1.405,43.385-13.388C372.676,539.176,370.217,514.115,359.802,497.984z"/>
			
				<radialGradient id="SVGID_4_" cx="-2160.6982" cy="-2004.0109" r="10.667" gradientTransform="matrix(0.1605 1.2642 -0.8091 0.1027 -975.9942 3475.4963)" gradientUnits="userSpaceOnUse">
				<stop  offset="0" style="stop-color:#F48789"/>
				<stop  offset="0.3959" style="stop-color:#F7A7A4"/>
				<stop  offset="1" style="stop-color:#FDDED4"/>
			</radialGradient>
			<path opacity="0.4" fill="url(#SVGID_4_)" d="M300.614,553.316c-5.688,0.722-11.161-5.485-12.225-13.864
				s2.685-15.756,8.373-16.479c5.688-0.722,11.161,5.485,12.225,13.864C310.051,545.217,306.302,552.594,300.614,553.316z"/>
			
				<radialGradient id="SVGID_6_" cx="-2151.9341" cy="-2003.9902" r="9.79" gradientTransform="matrix(0.1405 1.1065 -0.8091 0.1027 -1026.2241 3078.3281)" gradientUnits="userSpaceOnUse">
				<stop  offset="0" style="stop-color:#F48789"/>
				<stop  offset="0.3959" style="stop-color:#F7A7A4"/>
				<stop  offset="1" style="stop-color:#FDDED4"/>
			</radialGradient>
			<path opacity="0.4" fill="url(#SVGID_6_)" d="M294.434,503.605c-5.221,0.663-10.145-4.256-11-10.987
				c-0.854-6.73,2.685-12.724,7.905-13.387c5.221-0.663,10.145,4.256,11,10.987C303.194,496.949,299.655,502.943,294.434,503.605z"
				/>
			<path fill="#263238" d="M314.261,572.06c0.624-1.866-0.726-3.696-2.565-4.032c-0.322-0.059-0.599,0.214-0.577,0.531
				c0.105,1.572-2.079,1.405-2.123-0.123c-0.005-0.182-0.285-0.187-0.315-0.013c-0.384,2.278,2.621,2.523,3.285,0.739
				c0.974,0.472,1.415,1.54,1.014,2.621c-0.572,1.545-2.019,1.017-3.202,0.802c-0.346-0.063-0.52,0.371-0.276,0.594
				C311.159,574.693,313.537,574.226,314.261,572.06z"/>
			<path fill="#B42C36" d="M292.261,514.654c-0.832-0.284-1.783-0.639-2.379-1.316c-1.122-1.273-1.215-3.71-0.011-4.956
				c0.167-0.173,0.355-0.301,0.55-0.412c1.728,1.859,2.8,4.72,2.974,7.105C292.899,514.902,292.411,514.705,292.261,514.654z"/>
			<path fill="#263238" d="M293.175,506.915c-0.115-0.089-0.024-0.294,0.121-0.26c0.54,0.128,0.851,0.392,1.03,0.921
				c0.075,0.222-0.235,0.405-0.37,0.198c-0.085-0.129-0.191-0.265-0.304-0.396c0.131,2.858,0.553,4.31,1.635,7.299
				c0.067-0.093,0.139-0.18,0.232-0.232c0.059-0.034,0.152-0.039,0.192,0.032c0.168,0.299-0.039,0.687-0.237,0.928
				c-0.241,0.294-0.549,0.427-0.917,0.497c-0.285,0.054-0.344-0.363-0.109-0.471c0.053-0.024,0.106-0.065,0.16-0.097
				c-0.138,0.083-0.679-0.075-1.212-0.26c-0.175-2.385-1.246-5.246-2.974-7.105c0.92-0.523,2.099-0.46,3.114-0.7
				C293.426,507.133,293.299,507.011,293.175,506.915z"/>
			<path fill="#6D4D42" d="M334.604,526.918c1.794-1.872,1.627-6.523-0.886-7.809c-0.436-0.223-0.794,0.241-0.69,0.641
				c0.274,1.058,0.806,1.908,0.89,3.04c0.082,1.118-0.401,2.185-0.75,3.218C332.856,526.925,333.905,527.648,334.604,526.918z"/>
			<path fill="#6D4D42" d="M329.816,493.834c0.878-0.885,1.003-2.081,0.507-3.2c-0.309-0.696-1.554-2.037-2.162-0.843
				c-0.163,0.32,0.124,0.617,0.436,0.619c-0.138-0.001,0.124,0.284,0.181,0.41c0.103,0.226,0.132,0.459,0.152,0.704
				c0.04,0.511-0.042,1.128-0.232,1.602C328.407,493.851,329.285,494.369,329.816,493.834z"/>
			<path fill="#FAB7A4" d="M287.397,513.608c-0.167-0.644-0.238-1.337-0.344-1.994c-0.105-0.652-0.028-1.32-0.208-1.959
				c-0.052-0.185-0.336-0.277-0.482-0.146c-0.591,0.532-0.761,1.274-0.825,2.042c-0.085,1.026,0.207,1.794,0.748,2.652
				C286.699,514.858,287.566,514.257,287.397,513.608z"/>
			<path fill="#263238" d="M310.099,519.785c-0.347,0.142-0.701,0.221-1.033,0.405c-0.889,0.492-0.098,1.584,0.347,2.057
				c0.702,0.744,1.59,1.073,2.453,1.557c0.225,0.126,0.153,0.491-0.115,0.497c-0.405,0.009-3.471-1.591-3.857-2.511
				c-0.671-1.598,0.458-2.782,2.038-2.969C310.521,518.75,310.583,519.588,310.099,519.785z"/>
			<path fill="#263238" d="M306.923,493.404c-0.347,0.142-0.701,0.221-1.033,0.405c-0.889,0.492-0.098,1.584,0.347,2.057
				c0.702,0.744,1.59,1.073,2.453,1.557c0.225,0.126,0.153,0.491-0.115,0.497c-1.479,0.032-3.283-1.144-3.857-2.511
				c-0.671-1.598,0.458-2.782,2.038-2.969C307.345,492.369,307.406,493.206,306.923,493.404z"/>
		</g>
		<path fill="#FAB7A4" d="M306.352,521.189c0.002,0.516-0.036,1.041,0.079,1.547c0.09,0.394,0.487,0.836,0.409,1.234
			c-0.004,0.019-0.022,0.032-0.04,0.033c-0.494,0.038-0.802-0.71-0.956-1.082c-0.253-0.607-0.288-1.256-0.011-1.853
			C305.949,520.819,306.351,520.92,306.352,521.189z"/>
		<path fill="#FAB7A4" d="M303.672,494.188c0.017,0.301,0.015,0.604,0.047,0.904c0.039,0.363,0.225,0.675,0.319,1.02
			c0.041,0.149-0.127,0.335-0.279,0.231c-0.677-0.466-0.901-1.542-0.595-2.272C303.273,493.81,303.658,493.938,303.672,494.188z"/>
		<g>
			<g>
				<path fill="#FDE0D6" d="M244.554,540.931c-1.115-5.193-1.75-24.207,1.006-27.114c2.635-2.778,7.06-3.398,10.645-2.054
					c3.585,1.345,11.78,25.06,13.551,27.547c1.186,1.666,2.912,2.849,4.547,4.076c3.598,2.699,6.919,5.769,9.892,9.144
					c2.375,2.697,4.624,5.847,4.73,9.439c0.106,3.605-2.238,7.156-5.595,8.475c-3.731,1.466-9.366,1.724-12.976-0.019
					c-5.665-2.734-9.24-8.171-14.155-12.096c-3.251-2.596-6.576-5.276-8.678-8.866C245.992,546.854,245.188,543.888,244.554,540.931
					z"/>
				<path fill="#FDE0D6" d="M249.014,517.9c3.931,0.122,7.368-2.689,9.723-5.84c0.923-1.235,1.759-2.58,2.089-4.086
					c0.147-0.674,0.172-1.385,0.069-2.068c0.468-0.816,0.792-1.713,0.939-2.641c0.285-1.803-0.092-3.703-1.045-5.259
					c-0.294-0.48-0.657-0.942-1.157-1.2c-0.5-0.258-1.163-0.266-1.585,0.107c-0.377,0.332-0.484,0.878-0.476,1.381
					c0.017,1.184,0.568,2.351,1.47,3.118c-0.26,0.377-0.477,0.78-0.674,1.194c-0.136-0.054-0.274-0.101-0.415-0.142
					c0.014-0.305,0.016-0.611-0.007-0.916c-0.138-1.82-0.943-3.582-2.229-4.877c-0.397-0.399-0.856-0.765-1.402-0.901
					c-0.546-0.136-1.193,0.01-1.517,0.469c-0.29,0.41-0.268,0.966-0.145,1.453c0.29,1.148,1.094,2.157,2.149,2.695
					c-0.265,0.683-0.433,1.401-0.519,2.128c-0.316,0.082-0.625,0.18-0.924,0.294c-0.231-1.648-0.998-3.22-2.171-4.402
					c-0.397-0.399-0.856-0.765-1.402-0.901c-0.546-0.136-1.193,0.01-1.517,0.469c-0.29,0.41-0.268,0.966-0.145,1.453
					c0.29,1.148,1.094,2.157,2.149,2.695c-0.345,0.887-0.535,1.831-0.574,2.782c-0.386-0.994-0.967-1.913-1.719-2.67
					c-0.397-0.399-0.856-0.765-1.402-0.901c-0.546-0.136-1.193,0.01-1.517,0.469c-0.29,0.41-0.268,0.966-0.145,1.453
					c0.29,1.149,1.094,2.157,2.149,2.695c-0.381,0.98-0.572,2.03-0.579,3.082c-0.606,1.168-1.04,2.423-1.257,3.723
					c-0.23,1.375-0.183,2.935,0.753,3.969C246.726,517.551,247.899,517.865,249.014,517.9z"/>
			</g>
			<path fill="#FAC3B3" d="M265.312,543.85c1.422-0.183,2.781-1.41,3.57-2.537c0.329-0.47-0.234-1.189-0.727-0.776
				c-0.548,0.459-1.107,0.905-1.642,1.38c-0.504,0.447-1.102,0.789-1.541,1.304C264.753,543.477,264.978,543.893,265.312,543.85z"/>
			<path fill="#FAC3B3" d="M249.369,515.489c2.127,0.423,4.505-0.24,6.445-1.107c0.295-0.132,0.209-0.656-0.14-0.579
				c-2.095,0.465-4.179,0.45-6.286,0.75C248.851,514.63,248.843,515.384,249.369,515.489z"/>
			<path fill="#FAC3B3" d="M251.634,517.039c0.714,0.043,1.413-0.033,2.124-0.091c0.19-0.016,0.204-0.332,0.007-0.34
				c-0.711-0.031-1.413-0.085-2.122-0.015C251.394,516.617,251.374,517.023,251.634,517.039z"/>
			<path fill="#FAC3B3" d="M262.689,543.838c1.302-0.445,2.566-1.445,3.228-2.667c0.205-0.379-0.314-0.775-0.642-0.523
				c-0.476,0.367-0.894,0.799-1.378,1.161c-0.544,0.407-1.111,0.789-1.662,1.188C261.782,543.323,262.175,544.013,262.689,543.838z"
				/>
		</g>
		<g>
			<path fill="#FDE0D6" d="M245.727,523.988c0.061-3.729-0.68-7.587-2.836-10.63c-1.844-2.602-4.569-4.421-7.248-6.151
				c-6.552-4.231-13.213-8.295-19.972-12.186c-1.379-0.794-2.877-1.607-4.461-1.459c-1.757,0.164-3.234,1.537-3.933,3.156
				c-0.699,1.62-0.735,3.449-0.565,5.206c0.764,7.907,5.739,15.283,12.783,18.955c-5.649,3.361-9.692,9.303-10.743,15.793
				c-1.051,6.489,0.908,13.404,5.207,18.377c1.788,2.068,4.156,3.888,6.887,4.024c3.4,0.168,6.327-2.257,8.76-4.638
				C238.03,546.19,245.534,535.774,245.727,523.988z"/>
			<path fill="#FDE0D6" d="M211.839,484.398c0.007,0.043,0.021,0.083,0.031,0.125c-0.072,0.017-0.144,0.035-0.215,0.058
				c-0.029-0.116-0.08-0.226-0.16-0.315c-0.172-0.191-0.587-0.199-0.795-0.046c-0.258,0.191-0.346,0.668-0.178,0.94
				c0.003,0.005,0.006,0.01,0.009,0.015c-0.549,0.401-1.044,1.016-1.421,1.673c-0.764,1.331-1.177,2.842-2.262,3.928
				c-1.396,1.396-3.553,1.768-4.917,3.195c-1.902,1.989-1.373,5.573,0.773,7.296s5.4,1.647,7.756,0.224
				c2.356-1.423,3.875-3.976,4.542-6.646c0.452-1.809,0.555-3.69,0.504-5.554c-0.001-0.031-0.003-0.063-0.004-0.094
				c0.266-0.171,0.559-0.302,0.866-0.379c0.225-0.056,0.46-0.087,0.664-0.195c0.442-0.234,0.635-0.825,0.464-1.296
				c-0.171-0.47-0.655-0.792-1.154-0.825c-0.417-0.027-0.826,0.136-1.151,0.401c-0.045-0.15-0.094-0.299-0.153-0.444
				c0.294-0.115,0.563-0.328,0.667-0.626c0.108-0.309-0.009-0.703-0.306-0.841c-0.357-0.165-0.769,0.092-1.001,0.415
				c-0.015-0.017-0.032-0.032-0.048-0.049c0.111-0.109,0.204-0.235,0.256-0.383c0.119-0.341-0.01-0.777-0.338-0.928
				c-0.409-0.189-0.886,0.12-1.137,0.495c-0.003,0.004-0.005,0.009-0.007,0.013c-0.043-0.013-0.088-0.024-0.132-0.035
				c0.078-0.23,0.094-0.481-0.003-0.701c-0.122-0.277-0.451-0.469-0.738-0.374C211.893,483.564,211.778,484.026,211.839,484.398z"/>
		</g>
		<path fill="#6D4D42" d="M359.722,506.727c-0.342-1.242-1.488-1.666-2.651-1.505c-1.768,0.245-3.151-0.229-4.462-1.38
			c-0.918-0.806,0.211-2.437,0.955-2.831c0.519-0.275,1.068-0.204,1.584,0.033c0.453,0.207,1.324,1.709,0.268,1.645
			c-0.607-0.037-0.671,0.841-0.138,1.016c1.9,0.622,2.405-2.052,1.464-3.226c-1.304-1.627-3.656-1.708-5.23-0.489
			c-1.851,1.434-1.627,4.697-0.688,6.541c1.311,2.575,4.854,3.199,7.392,2.847C359.382,509.217,360.002,507.746,359.722,506.727z"/>
	</g>
</g>
</svg>
