<?xml version="1.0" encoding="utf-8"?>
<!-- Generator: Adobe Illustrator 17.0.0, SVG Export Plug-In . SVG Version: 6.00 Build 0)  -->
<!DOCTYPE svg PUBLIC "-//W3C//DTD SVG 1.1//EN" "http://www.w3.org/Graphics/SVG/1.1/DTD/svg11.dtd">
<svg version="1.1" id="Layer_1" xmlns="http://www.w3.org/2000/svg" xmlns:xlink="http://www.w3.org/1999/xlink" x="0px" y="0px"
	 width="200px" height="200px" viewBox="0 0 200 200" enable-background="new 0 0 200 200" xml:space="preserve">
<path d="M141.272,176.672c3.987,0.017,7.959-0.497,11.808-1.527c4.479-1.243,8.296-4.156,10.652-8.127l7.673-12.627
	c2.444-4.02,1.261-9.233-2.686-11.831l-30.514-20.149c-3.872-2.537-9.063-1.702-11.926,1.918l-8.888,11.316
	c-1.142,1.491-3.219,1.924-4.871,1.015l-1.691-0.923c-5.605-3.025-12.579-6.791-26.63-20.709S66.336,94.199,63.281,88.66
	l-0.927-1.674c-0.931-1.636-0.502-3.701,1.005-4.841l11.421-8.799c3.654-2.835,4.498-7.973,1.939-11.808l-20.35-30.214
	c-2.623-3.905-7.884-5.078-11.943-2.662l-12.76,7.59c-4.009,2.334-6.951,6.114-8.208,10.547
	c-4.595,16.577-1.138,45.187,41.425,87.336C98.742,167.657,123.947,176.672,141.272,176.672z M28.304,48.115
	c0.918-3.197,3.048-5.92,5.947-7.597l12.76-7.58c1.761-1.049,4.045-0.541,5.183,1.154l11.054,16.433l9.278,13.779
	c1.111,1.664,0.746,3.894-0.839,5.124l-11.423,8.799c-3.476,2.632-4.469,7.395-2.329,11.174l0.907,1.632
	c3.211,5.831,7.203,13.085,21.777,27.512c14.574,14.428,21.897,18.381,27.783,21.56l1.651,0.9c3.817,2.119,8.627,1.136,11.285-2.306
	l8.886-11.311c1.244-1.569,3.495-1.93,5.175-0.831l30.512,20.149c1.713,1.126,2.227,3.388,1.166,5.132l-7.655,12.634
	c-1.692,2.866-4.437,4.974-7.662,5.881c-15.456,4.201-42.458,0.721-83.32-39.739S24.061,63.421,28.304,48.115z"/>
</svg>
