<?xml version="1.0" encoding="utf-8"?>
<!-- Generator: Adobe Illustrator 17.0.0, SVG Export Plug-In . SVG Version: 6.00 Build 0)  -->
<!DOCTYPE svg PUBLIC "-//W3C//DTD SVG 1.1//EN" "http://www.w3.org/Graphics/SVG/1.1/DTD/svg11.dtd">
<svg version="1.1" id="Layer_1" xmlns="http://www.w3.org/2000/svg" xmlns:xlink="http://www.w3.org/1999/xlink" x="0px" y="0px"
	 width="800px" height="800px" viewBox="0 0 800 800" enable-background="new 0 0 800 800" xml:space="preserve">
<g>
	<g>
		<path fill="#FCEDF3" d="M238.979,651.506c17.317,9.33,36.12,15.707,53.278,25.327c30.608,17.161,54.972,44.056,85.936,60.566
			c31.956,17.04,69.22,21.974,105.399,20.351c38.314-1.718,76.945-10.779,109.425-31.174c32.48-20.395,58.278-52.961,65.633-90.602
			c7.046-36.059-2.853-73.412,0.833-109.968c3.834-38.017,22.047-72.926,32.033-109.808c9.549-35.271,11.493-72.581,5.661-108.654
			c-5.448-33.7-17.937-66.757-39.509-93.215c-21.572-26.458-52.75-45.836-86.685-49.551c-46.967-5.142-92.09,19.088-139.158,23.196
			c-22.98,2.005-46.102-0.826-69.164-0.318c-40.663,0.897-81.047,12.402-116.077,33.071c-29.611,17.471-56.214,42.702-67.387,75.217
			c-7.758,22.577-7.606,46.97-8.298,70.833c-1.332,45.987-4.059,94.436-15.124,139.242c-9.037,36.597,5.121,68.697,27.994,98.308
			C198.672,623.619,217.498,639.932,238.979,651.506z"/>
		<g>
			<defs>
				<path id="SVGID_5_" d="M238.979,651.506c17.317,9.33,36.12,15.707,53.278,25.327c30.608,17.161,54.972,44.056,85.936,60.566
					c31.956,17.04,69.22,21.974,105.399,20.351c38.314-1.718,76.945-10.779,109.425-31.174
					c32.48-20.395,58.278-52.961,65.633-90.602c3.107-15.901-0.617-33.765,4.707-48.75c4.626-13.022,16.348-22.514,26.239-31.5
					c29.924-27.186,58.085-63.273,52.916-106.199c-1.186-9.853-4.005-19.458-5.113-29.32
					c-4.458-39.675,18.704-76.651,27.787-115.529c4.146-17.749,5.149-41.576-7-56.702c-11.145-13.877-36.594-23.781-52.517-31.407
					c-22.395-10.724-49.693-13.524-70.546-24.459c-21.909-11.488-38.318-24.502-64.139-27.329
					c-46.967-5.142-92.09,19.088-139.158,23.196c-22.98,2.005-46.102-0.826-69.164-0.318c-30.454,0.671-60.751,7.291-88.758,19.257
					c-23.342,9.973-42.807,16.153-68.079,15.506c-27.229-0.697-54.699-0.445-81.456,5.237
					c-17.984,3.819-35.697,10.181-50.553,21.012c-14.856,10.83-26.694,26.467-30.578,44.438
					c-4.232,19.581,1.097,39.821,6.392,59.142c5.574,20.341,11.147,40.682,16.721,61.022c1.431,5.222,2.875,10.639,2.021,15.986
					c-2.817,17.654-26.199,22.255-38.254,35.457c-2.675,2.93-4.877,6.579-4.916,10.547c-0.044,4.524,2.674,8.552,5.282,12.249
					c23.079,32.706,57.493,51.546,94.464,66.31c28.112,11.273,40.472,26.753,58.823,50.508
					C198.672,623.619,217.498,639.932,238.979,651.506z"/>
			</defs>
			<clipPath id="SVGID_2_">
				<use xlink:href="#SVGID_5_"  overflow="visible"/>
			</clipPath>
			<g clip-path="url(#SVGID_2_)">
				<g>
					<path fill="#F9D3E3" d="M298.227,484.16c-26.966-45.532-57.562-89.335-95.484-126.243s-83.577-66.814-134.484-81.266
						c22.725,25.025,35.689,57.388,44.825,89.933c9.135,32.545,14.917,66.031,25.712,98.065
						c19.596,58.149,55.237,109.853,96.866,154.935c21.29,23.057,44.209,44.549,67.82,65.203
						c16.028,14.021,39.281,42.624,63.457,39.932c37.999-4.232-12.357-126.292-21.173-147.297
						C332.249,545.218,316.016,514.196,298.227,484.16z"/>
					
						<path fill="none" stroke="#000000" stroke-width="0.5" stroke-linecap="round" stroke-linejoin="round" stroke-miterlimit="10" d="
						M68.259,276.65c0,0,211.596,191.696,298.679,448.069"/>
				</g>
				<g>
					<path fill="#F9D3E3" d="M542.838,513.453c18.644-49.525,41.163-97.978,72.095-140.915
						c30.932-42.937,70.696-80.321,118.316-103.399c-18.031,28.593-25.174,62.717-28.515,96.354
						c-3.341,33.637-3.216,67.619-8.28,101.041c-9.193,60.67-35.308,117.78-68.469,169.411
						c-16.96,26.406-35.796,51.554-55.458,75.996c-13.348,16.593-31.277,48.802-55.552,50.351
						c-38.156,2.436-9.777-126.517-4.745-148.735C519.944,579.495,530.539,546.124,542.838,513.453z"/>
					
						<path fill="none" stroke="#000000" stroke-width="0.5" stroke-linecap="round" stroke-linejoin="round" stroke-miterlimit="10" d="
						M733.249,269.14c0,0-175.067,225.548-216.276,493.153"/>
				</g>
				<path fill="#F4A4C7" d="M323.65,679.963c-37.609-43.494-77.073-85.98-123.598-119.768
					c-46.524-33.789-100.843-58.686-158.165-63.198c54.232,12.734,102.913,43.305,144.801,80.03
					c30.212,26.488,57.305,56.259,83.721,86.464c13.108,14.989,25.697,30.571,39.404,45.019
					c8.258,8.704,22.125,22.686,35.027,12.144C357.499,710.309,330.635,688.04,323.65,679.963z"/>
				<path fill="#F4A4C7" d="M528.605,750.497c18.886-54.309,39.868-108.366,70.624-156.949
					c30.755-48.583,72.038-91.781,123.641-117.145c-45.694,31.864-79.643,78.252-105.005,127.851
					c-18.293,35.774-32.475,73.446-45.867,111.273c-6.645,18.77-12.589,37.9-19.99,56.388
					c-4.459,11.139-12.182,29.254-28.065,24.222C508.358,791.198,525.098,760.582,528.605,750.497z"/>
			</g>
		</g>
		<g>
			
				<circle fill="none" stroke="#333333" stroke-width="0.5" stroke-linecap="round" stroke-linejoin="round" stroke-miterlimit="10" cx="198.417" cy="260.612" r="17.94"/>
			
				<circle fill="none" stroke="#333333" stroke-width="0.5" stroke-linecap="round" stroke-linejoin="round" stroke-miterlimit="10" cx="540.548" cy="68.343" r="17.94"/>
			<circle fill="#333333" cx="573.552" cy="118.411" r="5.794"/>
			<circle fill="#333333" cx="210.563" cy="183.73" r="5.794"/>
		</g>
	</g>
	<g>
		<g>
			<path fill="#0D101B" d="M389.465,361.845c0,0-18.07,4.113-9.715,18.573C388.101,394.88,391.7,394.9,391.7,394.9
				s-15.938,0.882-13.509,14.093c2.429,13.213,11.284,19.099,11.284,19.099s16.331,18.396,3.98,26.872
				c-12.352,8.474-22.265-1.315-22.265-1.315s-1.124,5.841,4.498,9.76c5.622,3.919,14.149-2.601,14.149-2.601
				s-6.34,13.815-13.543,13.254l4.716,8.175c0,0,9.487,0.135,13.976-8.545c1.467-2.837,1.965-7.704,1.965-7.704l-3.468,15.151
				l11.296-5.663c2.184-4.67-4.937-21.338-4.137-29.851c0.802-8.515-4.244-15.733-4.821-18.872
				c-0.577-3.138,25.627-11.371,23.875-26.414C417.943,385.294,407.491,350.505,389.465,361.845z"/>
			<g>
				<path fill="#0CADB9" d="M278.722,328.142c5.278-1.115,36.961,8.531,42.718,10.69c5.757,2.159,29.695,31.153,39.583,66.754
					c15.905,57.264,6.62,194.567,6.62,194.567l-114.712,0.13c0,0-34.188-145.582-32.765-183.364
					C221.59,379.138,230.175,338.397,278.722,328.142z"/>
			</g>
			<g>
				<path fill="#DD3A8F" d="M682.091,634.654c0,0-21.729-39.946-55.545-42.361c-33.816-2.415-33.628,22.822-33.628,22.822
					L682.091,634.654z"/>
			</g>
			<g>
				<path fill="#F4E22D" d="M396.3,468.257c10.629,34.783,54.919,89.119,30.434,131.881c-1.446,2.528-2.931,5.062-4.446,7.6
					c0.146-0.078,0.291-0.15,0.432-0.223c11.745-5.926,144.591,1.8,170.197,7.6c0,0,19.455-44.579-11.002-85.024
					c-27.647-36.714-62.32-33.011-62.903-32.855c0.442-0.301,15.889-10.837,13.036-25.596
					c-2.902-14.977-65.702-61.353-73.913-65.701c-8.212-4.344-31.232-13.944-45.753-6.763
					C399.682,405.455,385.672,433.474,396.3,468.257z"/>
			</g>
			<g>
				<path fill="#EB509C" d="M386.156,691.443c2.898,25.6,11.108,56.52,81.157,57.969c16.887,0.35,42.325,0.381,71.428-0.236
					c5.906-0.127,11.962-0.28,18.126-0.464c89.489-2.653,202.108-20.35,212.826-44.291c8.249-18.424,10.661-46.857-16.878-58.937
					c-27.535-12.076-159.897-30.368-159.897-30.368c-25.604-5.801-158.452-13.525-170.199-7.601
					c-0.14,0.074-0.285,0.145-0.429,0.223c-1.392,2.338-2.802,4.68-4.225,7.018c-0.289,0.473-0.573,0.946-0.863,1.419
					C400.762,643.242,383.744,670.059,386.156,691.443z"/>
			</g>
			<g>
				<path fill="#FAC4B3" d="M757.963,715.869c-6.355-2.383-40.407,6.701-50.557,8.427c-8.98,1.527-41.432-4.838-41.432,8.623
					c0,15.987,10.747,17.187,38.064,17.25c22.219,0.051,33.058,0.344,37.023-1.242C745.026,747.341,773.823,721.817,757.963,715.869
					z"/>
			</g>
			<g>
				<path fill="#FAC4B3" d="M426.433,407.96c-10.329,2.978-19.235,21.966-6.402,39.875c10.927,15.249,85.113,90.252,92.435,95.974
					c11.726,9.163,153.125,77.089,153.125,77.089s7.883,8.527,18.948,9.929c11.064,1.402,22.112,3.239,35.313,11.759
					c13.202,8.52,6.832,10.687,13.107,10.933c6.275,0.247-14.62-33.933-26.593-36.821c-11.973-2.888-35.083-5.312-35.083-5.312
					s-68.73-71.771-123.539-91.813C492.935,499.53,462.102,397.676,426.433,407.96z"/>
			</g>
			<g>
				<path fill="#FAC4B3" d="M523.704,600.608c-13.916,2.494-57.027-17.649-57.027-17.649l1.407-22.216
					c0,0,30.031-12.113,36.094-10.329c6.064,1.784,25.641,8.301,25.641,8.301s-3.481,7.24-8.158,6.62
					c-4.675-0.624-15.32-4.837-12.857-0.167c2.46,4.664,22.99,10.331,27.345,10.207c4.36-0.122,11.203-7.153,12.006-4.315
					C548.962,573.902,537.615,598.113,523.704,600.608z"/>
			</g>
			<g>
				<path fill="#0CADB9" d="M467.519,583.201c0,0-107.892-6.699-147.05-28.492c-39.154-21.792-101.669-103.853-91.993-149.164
					c9.676-45.311,82.053-54.471,82.053-54.471c6.621,5.297,45.072,134.298,45.072,134.298s20.799,5.575,112.695,76.85
					L467.519,583.201z"/>
			</g>
			<g>
				<g>
					<path fill="#DD3A8F" d="M386.156,691.443c2.898,25.6,11.108,56.52,81.157,57.969c16.887,0.35,42.325,0.381,71.428-0.236
						c5.906-0.127,11.962-0.28,18.126-0.464c12.023-21.336,7.518-55.001-19.519-76.095c-17.741-13.84-77.444-39.164-120.146-56.441
						C400.762,643.242,383.744,670.059,386.156,691.443z"/>
				</g>
			</g>
			<g>
				<path fill="#A9AAAA" d="M243.542,712.549c0,0-13.627-5.068-19.875-16.732c-16.192-30.225,29.686-95.534,29.686-95.534
					l116.044-0.13c0,0,145.449,54.728,165.42,78.154c11.819,13.864,19.431,68.947-26.987,72.186
					c-46.418,3.238-244.825,0.458-244.825,0.458L243.542,712.549z"/>
			</g>
			<g>
				<path fill="#FAC4B3" d="M145.29,751.271h117.609v-22.672c0,0-18.564-17.58-23.613-17.584
					c-14.067-0.01-32.656,20.402-39.187,22.411c-6.531,2.01-26.158-1.236-42.202,4.216
					C150.604,740.12,145.29,751.271,145.29,751.271z"/>
			</g>
			<g>
				<path fill="#CCCBCB" d="M263.689,730.464c0.997-0.423,100.048-42.272,130.9-43.873c30.834-1.597,63.708,8.972,64.036,9.079
					l1.255-3.853c-0.336-0.109-33.929-10.909-65.501-9.273c-31.562,1.638-128.174,42.452-132.271,44.189L263.689,730.464z"/>
			</g>
			<g>
				<path fill="#E5E5E4" d="M379.049,508.013l2.212-3.395L359.32,482.15c-2.628-10.063-27.079-101.413-53.092-119.868l-2.345,3.305
					c25.75,18.268,51.453,117.338,51.71,118.336l0.196,0.763L379.049,508.013z"/>
			</g>
			<g>
				<path fill="#E5E5E4" d="M366.175,573.648l0.418-4.031c-25.975-2.693-49.224-11.614-69.102-26.517
					c-15.926-11.94-29.753-27.734-41.098-46.942c-19.359-32.777-24.805-64.453-24.858-64.769l-3.997,0.667
					c0.054,0.323,5.628,32.743,25.365,66.162c11.618,19.67,25.801,35.861,42.157,48.123
					C315.533,561.691,339.46,570.879,366.175,573.648z"/>
			</g>
			<g>
				<path fill="#FAC4B3" d="M311.318,273.704l3.275,54.948c0.551,5.886,2.662,12.295,0.281,14.458
					c-5.524,5.019-24.858-2.493-33.994-10.786c-7.463-6.773,4.556-58.119,4.556-58.119S300.419,271.639,311.318,273.704z"/>
				<path fill="#F8B09A" d="M285.436,274.206c0,0-0.36,2.505-0.901,6.639c0.797,5.826,2.293,14.802,4.611,21.403
					c3.096,8.813,14.919,23.193,25.594,23.688l-3.422-52.232C300.419,271.639,285.436,274.206,285.436,274.206z"/>
				<g>
					<path fill="#FAC4B3" d="M318.081,228.851c0,0,11.975,1.179,14.019,17.589c2.043,16.411-3.106,62.276-14.801,66.908
						c-11.695,4.632-26.442-10.592-29.776-19.523c-3.47-9.293-4.697-24.058-4.697-24.058S279.551,210.358,318.081,228.851z"/>
					<g>
						<path fill="#0D101B" d="M286.67,220.054l7.784,12.224c3.34,14.086-3.274,14.914-6.072,22.71
							c-0.202,0.559-0.368,1.097-0.512,1.617c-0.81-0.979-1.791-1.787-2.863-1.868c-2.823-0.206-5.281,1.919-5.487,4.742
							c-0.206,2.824,1.915,5.282,4.739,5.487c1.042,0.077,2.104-0.546,3.029-1.365c0.303,3.028-3.326,15.278-3.326,15.278
							c-5.447-3.818-7.196-6.822-7.417-17.015c-0.136-6.276-4.712-7.205-4.014-25.07C273.305,217.12,286.67,220.054,286.67,220.054z
							"/>
						<path fill="#0D101B" d="M335.4,234.064c-0.213,6.404-3.145,13.814-3.145,13.814c-0.023-3.748-2.086-9.406-3.614-11.535
							C328.64,236.343,333.393,235.813,335.4,234.064z"/>
						<path fill="#0D101B" d="M294.454,232.278c0,0,6.242,6.312,21.169,7.376c10.5,0.751,19.37-0.759,23.491-9.989
							c7.492-16.791-7.064-28.581-19.013-22.605c-3.835,1.919-3.646,5.574-3.457,7.97c0,0-5.723,1.078-12.746-3.257
							c-10.176-6.281-17.77,6.058-17.226,8.282L294.454,232.278z"/>
					</g>
					<path fill="#FAC4B3" d="M284.039,248.656c-3.695-0.351-12.39,2.941-4.45,15.36c7.94,12.419,13.729-1.087,12.659-6.645
						C291.177,251.811,286.871,248.924,284.039,248.656z"/>
				</g>
			</g>
			<g>
				<g>
					<path fill="#FAC4B3" d="M433.88,397.491c-7.765-17.587-10.405-51.986-10.405-51.986l-24.007-3.778
						c0,0,7.607,60.486,8.507,60.317C409.392,402.146,421.029,402.955,433.88,397.491z"/>
					<path fill="#F8B09A" d="M399.468,341.727l24.007,3.778c0,0,0.586,8.346,2.143,18.885c-6.496-0.348-13.613-2.902-19.128-6.297
						c-2.427-1.495-4.475-2.826-6.215-4.105C399.794,346.852,399.468,341.727,399.468,341.727z"/>
					<path fill="#0D101B" d="M441.993,295.202c0,0-13.133,24.809-19.675,28.779c-6.543,3.971-21.512,11.032-21.512,11.032
						s-0.583,33.07,0.944,39.955c0,0-29.173-0.055-26.412-50.656c1.053-19.291,0.815-31.373,17.978-42.754
						C410.479,270.178,432.591,278.551,441.993,295.202z"/>
					<path fill="#FAC4B3" d="M426.915,291.773c0,0,12.903,1.907,15.797,11.113c2.891,9.207,1.504,14.328,2.899,18.774
						c1.396,4.445,2.426,13.02-0.586,27.064c-3.014,14.046-22.763,10.04-35.026,2.624c-13.803-8.35-15.496-11.358-18.59-28.355
						C388.315,305.996,406.182,288.197,426.915,291.773z"/>
					<path fill="#141A26" d="M436.872,280.848c0,0,9.923-0.207,10.468,9.374c0.542,9.582-20.472,25.167-36.645,26.191
						c-6.065,0.384-5.299,3.906-7.134,6.641c-3.059,4.56-5.415,9.89-0.487,16.544c7.883,10.644,11.742,3.508,11.742,3.508
						s-3.138,7.963-17.757,6.788c-14.619-1.175-20.738-21.34-13.008-35.284c7.732-13.943,17.141-21.617,25.107-26.197
						C426.443,278.478,436.872,280.848,436.872,280.848z"/>
					<path fill="#FAC4B3" d="M397.813,321.361c1.621-0.298,9.58,3.125,8.772,8.529c-0.807,5.406-2.534,6.131-7.506,4.686
						C394.108,333.132,393.72,322.114,397.813,321.361z"/>
				</g>
			</g>
		</g>
	</g>
</g>
</svg>
