<?xml version="1.0" encoding="utf-8"?>
<!-- Generator: Adobe Illustrator 17.0.0, SVG Export Plug-In . SVG Version: 6.00 Build 0)  -->
<!DOCTYPE svg PUBLIC "-//W3C//DTD SVG 1.1//EN" "http://www.w3.org/Graphics/SVG/1.1/DTD/svg11.dtd">
<svg version="1.1" id="Layer_1" xmlns="http://www.w3.org/2000/svg" xmlns:xlink="http://www.w3.org/1999/xlink" x="0px" y="0px"
	 width="200px" height="200px" viewBox="0 0 200 200" enable-background="new 0 0 200 200" xml:space="preserve">
<g>
	<g>
		<path d="M182.39,44.054c-0.019-0.187-0.056-0.371-0.11-0.551c-0.055-0.178-0.129-0.35-0.22-0.512
			c-0.044-0.077-0.052-0.168-0.105-0.242s-0.118-0.105-0.171-0.168c-0.123-0.145-0.26-0.277-0.41-0.394
			c-0.131-0.105-0.271-0.197-0.419-0.275c-0.154-0.079-0.315-0.143-0.482-0.19c-0.18-0.053-0.364-0.09-0.551-0.11
			c-0.083,0-0.154-0.047-0.24-0.047H19.93c-0.083,0.012-0.166,0.029-0.248,0.05c-0.179,0.018-0.357,0.054-0.529,0.107
			c-0.171,0.049-0.337,0.113-0.496,0.193c-0.145,0.079-0.282,0.172-0.41,0.275c-0.151,0.117-0.29,0.25-0.413,0.397
			c-0.052,0.063-0.124,0.099-0.171,0.168s-0.061,0.165-0.105,0.242c-0.091,0.163-0.165,0.334-0.22,0.512
			c-0.055,0.18-0.092,0.364-0.11,0.551c0,0.091-0.052,0.171-0.052,0.275v110.172c0,1.521,1.233,2.754,2.754,2.754h159.757
			c1.521,0,2.754-1.233,2.754-2.754V44.33C182.442,44.236,182.398,44.156,182.39,44.054z M170.84,47.084L99.809,96.072
			L28.778,47.084H170.84z M22.685,151.753V49.577l75.56,52.108c0.942,0.65,2.187,0.65,3.129,0l75.56-52.108v102.176H22.685z"/>
	</g>
</g>
</svg>
