<?xml version="1.0" encoding="utf-8"?>
<!-- Generator: Adobe Illustrator 17.0.0, SVG Export Plug-In . SVG Version: 6.00 Build 0)  -->
<!DOCTYPE svg PUBLIC "-//W3C//DTD SVG 1.1//EN" "http://www.w3.org/Graphics/SVG/1.1/DTD/svg11.dtd">
<svg version="1.1" id="Layer_1" xmlns="http://www.w3.org/2000/svg" xmlns:xlink="http://www.w3.org/1999/xlink" x="0px" y="0px"
	 width="800px" height="800px" viewBox="0 0 800 800" enable-background="new 0 0 800 800" xml:space="preserve">
<g>
	<path fill="#FDF1F1" d="M314.371,209.937c-14.854,11.736-27.665,25.912-42.714,37.397c-26.845,20.487-59.906,31.743-86.313,52.792
		c-27.253,21.724-45.838,52.759-58.217,85.339c-13.11,34.503-19.854,72.088-14.237,108.567c5.617,36.479,24.536,71.702,54.98,92.57
		c29.165,19.991,65.941,25.507,96.827,42.72c32.121,17.901,56.005,47.318,84.774,70.22c27.513,21.902,59.73,37.863,93.823,46.483
		c31.851,8.053,65.821,9.641,97.43,0.686c31.609-8.956,60.63-29.1,76.868-57.659c22.474-39.527,18.296-88.639,32.637-131.787
		c7.001-21.066,18.331-40.411,26.686-60.978c14.732-36.264,19.986-76.331,15.102-115.168c-4.129-32.828-16.261-65.962-40.719-88.246
		c-16.983-15.473-38.589-24.652-59.405-34.373c-40.116-18.734-81.874-39.64-117.232-66.521
		c-28.879-21.956-62.642-21.704-97.532-12.802C354.395,184.977,332.796,195.38,314.371,209.937z"/>
	<g>
		<defs>
			<path id="SVGID_3_" d="M230.246,294.075c-6.381-6.384-12.829-12.778-19.851-17.025c-11.012-6.66-26.232-10.694-38.171-16.791
				c-6.671-3.407-13.406-7.125-20.832-8.104c-7.427-0.979-15.868,1.479-19.654,7.943c-4.308,7.355-1.288,16.57-0.396,25.048
				c0.094,0.889,0.154,1.829-0.232,2.635c-0.707,1.479-2.569,1.924-4.196,2.134c-21.182,2.74-43.282-4.78-60.136,12.498
				c-16.769,17.19,0.311,31.098,10.757,45.939c13.235,18.804,25.274,38.451,36.015,58.783c18.049,34.167,32.422,70.258,43.082,107.4
				c7.465,26.009,13.645,53.991,30.093,76.115c17.175,23.101,53.293,24.917,77.97,38.67c32.121,17.901,56.005,47.318,84.774,70.22
				c27.513,21.902,59.73,37.863,93.823,46.483c31.851,8.053,65.821,9.641,97.43,0.686c31.609-8.956,60.63-29.1,76.868-57.659
				c22.474-39.527,18.296-88.639,32.637-131.787c7.001-21.066,18.331-40.411,26.686-60.978c12.349-30.398,18.04-63.465,16.68-96.243
				c-1.295-31.185-2.532-59.342,15.026-87.076c6.769-10.692,15.465-20.278,20.424-31.921c1.664-3.907,2.894-8.244,1.901-12.373
				c-1.834-7.628-10.635-11.653-18.478-11.468c-7.843,0.185-15.263,3.376-22.924,5.067c-1.786,0.395-3.677,0.703-5.42,0.146
				c-6.113-1.954-4.707-10.805-6.151-17.058c-1.556-6.737-7.812-11.63-14.503-13.376c-6.69-1.745-13.773-0.866-20.56,0.456
				c-32.089,6.249-62.341,23.274-87.59,43.709c-29.227,23.655-55.089,52.331-89.025,69.545
				c-42.55,21.584-93.948,21.898-139.294,7.06c-29.926-9.793-57.497-25.807-82.215-45.174
				C239.832,303.701,235.058,298.891,230.246,294.075z"/>
		</defs>
		<use xlink:href="#SVGID_3_"  overflow="visible" fill="#FCEDF3"/>
		<clipPath id="SVGID_2_">
			<use xlink:href="#SVGID_3_"  overflow="visible"/>
		</clipPath>
		<g clip-path="url(#SVGID_2_)">
			<path fill="#F4A4C7" d="M407.648,646.626c0.296,5.747,1.514,11.567,4.918,16.16c10.691,14.428,20.086,1.377,26.792-8.341
				c26.063-37.773,40.724-81.995,57.754-124.61c41.469-103.77,169.282-287.885,169.282-287.885s-18.363,15.864-26.703,23.552
				c-9.09,8.379-17.989,16.964-26.691,25.745c-17.402,17.564-34.013,35.911-49.777,54.959
				c-31.532,38.102-59.677,79.004-84.015,122.057c-15.818,27.983-30.03,56.874-42.514,86.495
				c-6.146,14.581-11.874,29.339-17.168,44.25c-5.192,14.621-12.242,30.016-11.942,45.742
				C407.594,645.374,407.616,646,407.648,646.626z"/>
			<path fill="#F4A4C7" d="M398.24,662.207c-0.295,5.747-1.514,11.567-4.917,16.16c-10.691,14.428-20.086,1.377-26.792-8.341
				c-26.063-37.773-40.724-81.995-57.754-124.61c-41.469-103.77-169.282-287.885-169.282-287.885s18.363,15.864,26.703,23.552
				c9.09,8.379,17.989,16.964,26.69,25.745c17.403,17.564,34.013,35.911,49.777,54.96c31.532,38.101,59.677,79.004,84.015,122.057
				c15.818,27.983,30.03,56.874,42.514,86.495c6.146,14.581,11.874,29.339,17.168,44.25c5.192,14.621,12.242,30.016,11.942,45.742
				C398.293,660.955,398.272,661.581,398.24,662.207z"/>
			<g>
				<path fill="#F9D3E3" d="M715.408,276.535c0,0-62.555,84.165-82.781,133.367c-12.639,30.743-24.807,61.699-36.499,92.85
					c-12.556,33.454-24.646,67.315-42.003,98.33c-17.357,31.015-40.503,59.392-70.55,76.801
					c-21.666,12.553-100.994,36.073-89.963-15.955c8.518-40.178,29.821-81.29,48.967-116.871
					c40.004-74.339,93.911-140.486,157.835-193.448c18.018-14.928,36.83-28.806,56.342-41.513
					C674.768,298.364,715.408,276.535,715.408,276.535z"/>
				
					<path fill="none" stroke="#000000" stroke-width="0.5" stroke-linecap="round" stroke-linejoin="round" stroke-miterlimit="10" d="
					M710.206,278.542c-139.815,98.127-238.45,250.874-301.31,414.305"/>
			</g>
			<g>
				<path fill="#F9D3E3" d="M72.028,306.073c0,0,64.149,82.957,85.31,131.763c13.223,30.497,25.979,61.214,38.264,92.136
					c13.192,33.208,25.925,66.833,43.871,97.51c17.945,30.678,41.628,58.608,72.002,75.441
					c21.902,12.138,101.663,34.14,89.642-17.668c-9.283-40.008-31.366-80.707-51.188-115.916
					c-41.414-73.563-96.574-138.67-161.496-190.402c-18.299-14.581-37.373-28.098-57.124-40.43
					C113.076,327.123,72.028,306.073,72.028,306.073z"/>
				
					<path fill="none" stroke="#000000" stroke-width="0.5" stroke-linecap="round" stroke-linejoin="round" stroke-miterlimit="10" d="
					M77.266,307.981c141.662,95.441,243.193,246.279,309.159,408.482"/>
			</g>
		</g>
	</g>
	<g>
		
			<circle fill="none" stroke="#333333" stroke-width="0.5" stroke-linecap="round" stroke-linejoin="round" stroke-miterlimit="10" cx="501.341" cy="287.466" r="17.265"/>
		
			<circle fill="none" stroke="#333333" stroke-width="0.5" stroke-linecap="round" stroke-linejoin="round" stroke-miterlimit="10" cx="194.404" cy="67.802" r="17.265"/>
		<circle fill="#333333" cx="566.166" cy="209.436" r="5.576"/>
		<circle fill="#333333" cx="188.828" cy="241.991" r="5.576"/>
	</g>
</g>
<g>
	<g>
		<path fill="#F8B09A" d="M411.098,197.187c-10.91,5.849-93.159,69.505-93.159,69.505s-46.858-47.787-74.801-90.946l-11.308,5.172
			c2.744,9.425,35.867,121.649,60.918,134.741c19.067,9.964,93.607-35.9,93.607-35.9l60.697-82.009
			C447.052,197.75,428.154,188.043,411.098,197.187z"/>
	</g>
	<g>
		<g>
			<g>
				<g>
					<ellipse fill="#EB509C" cx="450.006" cy="611.815" rx="168.184" ry="156.259"/>
				</g>
				<g>
					<path fill="#DD3A8F" d="M618.189,611.813c0,86.303-75.298,156.261-168.185,156.261c-63.653,0-119.047-32.855-147.609-81.312
						c30.832,35.511,78.048,58.227,130.976,58.227c92.887,0,168.185-69.958,168.185-156.257c0-27.165-7.462-52.71-20.585-74.963
						C604.248,540.578,618.189,574.683,618.189,611.813z"/>
				</g>
				<g>
					<path fill="#F4E22D" d="M489.617,368.66c0,0-29.576-32.458-25.414-64.917c4.162-32.458,56.155-124.818,56.155-124.818
						l-31.658-29.811c0,0-26.367-4.957-52.097,13.818c-6.872,5.015-63.032,39.879-71.888,58.073
						c-11.366,23.351,6.828,35.005,6.828,35.005s-73.435,40.715-64.819,103.104c8.689,62.921,52.226,62.921,52.226,62.921
						L489.617,368.66z"/>
				</g>
				<g>
					<path fill="#009898" d="M469.914,393.517c0,0,42.333,5.881,34.563,51.97c-15.754,93.444-240.178,47.93-240.178,47.93
						s18.238,35.601,13.136,53.587c-5.734,20.215-80.027,189.889-80.027,189.889l-16.941,0.344c0,0,14.559-272.989,20.863-287.389
						C213.023,423.135,389.982,387.728,469.914,393.517z"/>
				</g>
				<g>
					<path fill="#0CADB9" d="M487.376,368.66c0,0,36.4,29.013,37.557,75.737c2.347,94.734-241.889,51.237-241.889,51.237
						s24.69,31.473,23.11,50.101c-1.776,20.937-37.462,198.894-37.462,198.894h-13.203c0,0-42.488-269.645-39.045-284.983
						C222.832,431.195,407.805,378.207,487.376,368.66z"/>
				</g>
				<g>
					<path fill="#FAC4B3" d="M524.614,189.335c-2.094-11.835-15.455-22.503-15.455-22.503
						c-19.415-0.955-46.891,45.686-34.998,63.806c4.676,7.125-5.087,71.183-15.156,79.517c-12.499,10.345-81.354,77.34-87.01,82.847
						l6.677,6.968c3.216-1.843,92.626-53.154,110.163-70.648C506.694,311.505,528.208,209.656,524.614,189.335z"/>
				</g>
				<g>
					
						<ellipse transform="matrix(-0.8185 -0.5744 0.5744 -0.8185 382.3939 936.5267)" fill="#E5EFF9" cx="339.112" cy="407.868" rx="19.365" ry="18.814"/>
					<path fill="#4D4E4E" d="M322.325,396.088c6.321-9.008,18.995-11.051,28.251-4.555c9.257,6.496,11.644,19.109,5.323,28.116
						c-6.321,9.007-18.994,11.05-28.251,4.554C318.391,417.707,316.003,405.095,322.325,396.088z M324.195,397.401
						c-5.597,7.976-3.46,19.16,4.765,24.932c8.225,5.772,19.47,3.979,25.067-3.997c5.597-7.976,3.46-19.161-4.765-24.933
						C341.038,387.631,329.793,389.425,324.195,397.401z"/>
				</g>
				<g>
					<circle fill="#4D4E4E" cx="340.128" cy="409.921" r="17.721"/>
				</g>
				<path fill="#FAC4B3" d="M371.795,393.511c0,0,0.21-0.307,0.59-0.858c2.436,2.51,4.596,4.089,7.321,6.872
					c-0.046,0.037-0.094,0.074-0.14,0.111c0,0-10.733,26.62-14.76,28.198c-4.028,1.578-18.007,3.285-18.007,3.285
					s1.914-5.996,6.94-7.255c5.027-1.259,3.018-23.259,3.018-23.259L371.795,393.511z"/>
				<path fill="#FAC4B3" d="M332.731,407.065c-4.803,2.9-15.154,12.29,0.597,22.433l9.426-12.648
					C342.754,416.849,343.623,400.489,332.731,407.065z"/>
				<g>
					<circle fill="#E5EFF9" cx="353.335" cy="431.417" r="18.958"/>
					<path fill="#4D4E4E" d="M336.881,419.87c6.366-9.071,18.926-11.271,27.998-4.904c9.073,6.367,11.275,18.927,4.909,27.998
						c-6.366,9.071-18.926,11.271-27.998,4.904C332.718,441.5,330.516,428.941,336.881,419.87z M338.752,421.183
						c-5.642,8.039-3.69,19.171,4.351,24.814c8.041,5.643,19.173,3.694,24.815-4.346c5.642-8.039,3.69-19.171-4.351-24.814
						C355.526,411.194,344.394,413.144,338.752,421.183z"/>
				</g>
				<g>
					<circle fill="#4D4E4E" cx="354.345" cy="434.185" r="17.721"/>
				</g>
				<g>
					<g>
						<path fill="#0D101B" d="M469.108,91.058c-1.147-0.465-32.302,23.429-34.318,34.362c-2.016,10.934,3.348,14.204,3.348,14.204
							s-11.065,1.863-6.482,12.256c4.581,10.393,27.112,12.087,31.163,7.962c4.053-4.124,1.926-19.21,1.926-19.21
							S500.659,103.87,469.108,91.058z"/>
						<path fill="#141A26" d="M443.098,138.46c6.808,2.322,13.727,0.594,19.621-6.962c3.902-5.276,4.111-6.02,11.442-9.893
							c-3.252-0.213-6.603,0.379-9.476,2.165C457.711,128.123,458.573,135.358,443.098,138.46z"/>
					</g>
					<g>
						<path fill="#FAC4B3" d="M460.713,159.679c4.463-21.544,1.129-57.038,1.129-57.038l22.752-9.337c0,0,6.396,63.836,5.489,63.835
							C482.407,171.3,459.634,170.217,460.713,159.679z"/>
						<path fill="#F8B09A" d="M484.593,93.304l-22.752,9.337c0,0,0.736,7.841,1.054,18.388c6.057-1.764,12.276-5.747,16.905-10.249
							c2.381-2.315,4.326-4.314,5.906-6.189C485.053,97.885,484.593,93.304,484.593,93.304z"/>
						<path fill="#0D101B" d="M434.791,52.428c0,0,17.254,23.65,24.344,26.573c7.09,2.923,22.949,7.474,22.949,7.474
							s5.201,34.554,5.893,41.975c0,0,28.784-5.322,17.021-58.221c-4.485-20.167-6.419-32.972-25.193-41.659
							C461.031,19.882,440.973,33.019,434.791,52.428z"/>
						<path fill="#141A26" d="M460.726,193.555c0,0-2.525,10.863-1.251,14.595c1.274,3.73,16.581,1.892,15.442,11.204
							c-1.14,9.309-5.987,4.847-5.987,4.847s1.059,7.131,5.223,5.195c4.165-1.938,4.131-6.858,4.131-6.858s2.878,3.623,1.362,7.037
							c0,0,4.677-2.289,4.912-9.292c0.238-7.004-2.085-12.245-6.378-12.385c-1.847-0.058-3.186-1.946-4.113-4.076
							c-1.84-4.235-5.476-7.427-9.817-8.994L460.726,193.555z"/>
						<path fill="#FAC4B3" d="M448.877,45.879c0,0-12.24,4.518-13.41,14.803c-1.17,10.283,1.104,15.424,0.538,20.388
							c-0.563,4.965-0.032,14.221,5.425,28.468c5.454,14.247,23.993,6.183,34.619-4.03c11.962-11.497,13.074-15.003,13.044-33.553
							C489.063,53.404,468.451,38.078,448.877,45.879z"/>
						<path fill="#141A26" d="M437.212,36.276c0,0-9.714,1.71-8.526,11.932c1.188,10.222,24.47,22.603,40.423,20.542
							c5.982-0.773,5.867,3.096,8.147,5.628c3.8,4.222,7.05,9.393,3.439,17.377c-5.777,12.773-10.818,5.986-10.818,5.986
							s4.486,7.8,18.53,3.719c14.042-4.079,16.393-26.561,6.356-39.786c-10.037-13.224-20.587-19.501-29.176-22.79
							C446.954,31.748,437.212,36.276,437.212,36.276z"/>
						<path fill="#FAC4B3" d="M482.554,71.476c-1.632,0-8.778,5.16-7.022,10.711c1.754,5.551,3.57,5.983,8.157,3.49
							C488.277,83.186,486.682,71.476,482.554,71.476z"/>
					</g>
					<path fill="#141A26" d="M447.606,140.556c0,0-12.538-5.862-17.062,4.056c-4.524,9.916,7.73,21.997,12.807,23.801
						c0,0-5.961,3.786-0.854,12.442c5.109,8.655,18.179,12.622,18.179,12.622s16.205-21.903,9.173-27.768
						c-7.03-5.867-9.173-3.786-9.173-3.786s11.406-8.562,4.069-16.589C457.411,137.306,447.606,140.556,447.606,140.556z"/>
				</g>
			</g>
			<g>
				<path fill="#E8CF1F" d="M391.634,261.979c-6.357,0-13.471-1.16-20.759-4.514l1.339-2.91c10.302,4.741,21.466,5.53,33.183,2.346
					c8.808-2.394,14.634-6.262,14.692-6.301l1.788,2.657c-0.251,0.169-6.242,4.161-15.527,6.704
					C402.311,261.066,397.27,261.979,391.634,261.979z"/>
			</g>
			<g>
				<g>
					<path fill="#F4E22D" d="M180.717,735.114c0,0-54.825,20.595-55.597,23.336c-0.772,2.741,6.073,7.461,27.441,7.377
						c11.174-0.044,14.249-2.958,23.256-2.75c9.007,0.209,10.036,2.144,18.014,2.398c11.065,0.353,15.283-3.461,12.61-10.334
						c-2.673-6.873-9.26-18.567-9.26-18.567S181.489,738.66,180.717,735.114z"/>
				</g>
				<g>
					<path fill="#FFFFFF" d="M173.125,748.122c-0.468,0-0.926-0.234-1.191-0.661l-4.356-7.002c-0.409-0.657-0.208-1.521,0.449-1.93
						c0.657-0.409,1.521-0.208,1.93,0.449l4.356,7.002c0.409,0.657,0.208,1.522-0.45,1.93
						C173.634,748.054,173.378,748.122,173.125,748.122z"/>
				</g>
				<g>
					<path fill="#FFFFFF" d="M165.704,750.72c-0.477,0-0.942-0.244-1.204-0.683l-3.934-6.581c-0.397-0.664-0.181-1.525,0.484-1.922
						c0.664-0.398,1.525-0.181,1.922,0.484l3.934,6.581c0.397,0.664,0.181,1.525-0.484,1.922
						C166.197,750.655,165.949,750.72,165.704,750.72z"/>
				</g>
			</g>
			<g>
				<g>
					<path fill="#F4E22D" d="M254.436,736.011c0,0-52.232,19.621-52.968,22.233c-0.735,2.612,5.786,7.108,26.144,7.028
						c10.645-0.042,13.575-2.819,22.156-2.62c8.581,0.199,9.561,2.043,17.163,2.285c10.542,0.336,14.56-3.298,12.014-9.845
						c-2.546-6.548-8.822-17.69-8.822-17.69S255.171,739.39,254.436,736.011z"/>
				</g>
				<g>
					<path fill="#FFFFFF" d="M247.202,748.47c-0.468,0-0.926-0.234-1.191-0.661l-4.15-6.671c-0.409-0.657-0.208-1.522,0.45-1.93
						c0.656-0.409,1.521-0.208,1.93,0.45l4.15,6.671c0.409,0.657,0.208,1.522-0.449,1.93
						C247.711,748.402,247.455,748.47,247.202,748.47z"/>
				</g>
				<g>
					<path fill="#FFFFFF" d="M240.132,750.945c-0.476,0-0.942-0.244-1.204-0.683l-3.748-6.27c-0.397-0.664-0.181-1.525,0.484-1.922
						c0.664-0.397,1.524-0.181,1.922,0.484l3.748,6.27c0.397,0.664,0.181,1.525-0.484,1.922
						C240.625,750.881,240.377,750.945,240.132,750.945z"/>
				</g>
			</g>
		</g>
		<g>
			<path fill="#009898" d="M236.246,647.117c-0.95,0-1.793-0.678-1.968-1.646c-0.077-0.423-7.717-42.782-13.945-86.615
				c-8.543-60.123-10.363-92.931-5.566-100.301c10.959-16.836,73.291-43.286,75.939-44.404c1.019-0.429,2.193,0.048,2.623,1.066
				c0.43,1.019-0.047,2.193-1.066,2.623c-0.638,0.269-63.845,27.083-74.14,42.899c-2.356,3.62-4.688,21.107,6.174,97.553
				c6.218,43.759,13.845,86.044,13.921,86.466c0.197,1.088-0.525,2.129-1.614,2.326
				C236.484,647.106,236.363,647.117,236.246,647.117z"/>
		</g>
	</g>
	<g>
		
			<ellipse transform="matrix(0.8895 0.4569 -0.4569 0.8895 95.523 -93.0451)" fill="#E5EFF9" cx="240.169" cy="151.009" rx="20.852" ry="20.258"/>
		<path fill="#4D4E4E" d="M220.526,140.92c5.413-10.54,18.629-14.589,29.46-9.026s15.239,18.663,9.826,29.203
			c-5.413,10.54-18.629,14.588-29.46,9.026S215.113,151.46,220.526,140.92z M222.715,142.045c-4.793,9.333-0.863,20.947,8.761,25.89
			c9.624,4.943,21.353,1.372,26.147-7.961c4.793-9.333,0.863-20.947-8.761-25.89C239.238,129.141,227.508,132.712,222.715,142.045z"
			/>
	</g>
	<g>
		<circle fill="#4D4E4E" cx="237.703" cy="151.069" r="19.081"/>
	</g>
	<g>
		<circle fill="#4D4E4E" cx="213.71" cy="151.711" r="19.081"/>
	</g>
	<path fill="#F8B09A" d="M244.096,178.297c0,0,0.196,0.366,0.547,1.028c-3.746,1.123-7.799,2.35-11.965,3.618
		c-0.013-0.065-0.025-0.131-0.038-0.197c0,0-19.507-24.268-18.997-29.077c0.511-4.81,6.023-19.559,6.023-19.559
		s4.963,4.989,3.621,10.626c-1.342,5.637,17.972,9.472,21.522,14.984C247.325,163.627,244.096,178.297,244.096,178.297z"/>
	<path fill="#F8B09A" d="M237.86,128.677c-4.803-2.899-17.934-7.684-19.572,10.978l15.583,2.449
		C233.871,142.104,248.752,135.252,237.86,128.677z"/>
	<g>
		
			<ellipse transform="matrix(0.8895 0.4569 -0.4569 0.8895 93.1657 -82.0124)" fill="#E5EFF9" cx="216.176" cy="151.651" rx="20.852" ry="20.258"/>
		<path fill="#4D4E4E" d="M196.533,141.562c5.413-10.54,18.629-14.589,29.46-9.026s15.239,18.663,9.826,29.203
			c-5.413,10.54-18.629,14.588-29.46,9.026C195.528,165.202,191.12,152.102,196.533,141.562z M198.722,142.687
			c-4.793,9.333-0.864,20.946,8.76,25.89c9.624,4.943,21.353,1.372,26.147-7.961c4.793-9.333,0.863-20.947-8.761-25.89
			C215.245,129.783,203.516,133.354,198.722,142.687z"/>
	</g>
	<g>
		<circle fill="#4D4E4E" cx="215.306" cy="151.999" r="19.308"/>
	</g>
</g>
</svg>
