<svg width="24" height="24" viewBox="0 0 24 24" fill="none" xmlns="http://www.w3.org/2000/svg">
<g clip-path="url(#clip0)">
<path d="M15.913 12.782H0.782609C0.350607 12.782 0 12.4314 0 11.9994C0 11.5674 0.350607 11.2168 0.782609 11.2168H15.913C16.345 11.2168 16.6956 11.5674 16.6956 11.9994C16.6956 12.4314 16.345 12.782 15.913 12.782Z" fill="#7ccdce"/>
<path d="M11.739 16.9558C11.5385 16.9558 11.3383 16.8798 11.1858 16.7264C10.8801 16.4207 10.8801 15.925 11.1858 15.6191L14.8067 11.9984L11.1858 8.37753C10.8801 8.07182 10.8801 7.576 11.1858 7.2703C11.4917 6.96459 11.9873 6.96459 12.2931 7.2703L16.4669 11.4443C16.7726 11.75 16.7726 12.2457 16.4669 12.5514L12.2931 16.7252C12.1396 16.8798 11.9394 16.9558 11.739 16.9558V16.9558Z" fill="#7ccdce"/>
<path d="M12.522 23.4781C7.77302 23.4781 3.58044 20.6211 1.83887 16.1987C1.68028 15.798 1.87842 15.3431 2.28023 15.1845C2.6809 15.028 3.13698 15.2231 3.29556 15.627C4.79926 19.4451 8.42111 21.9129 12.522 21.9129C17.9876 21.9129 22.4351 17.4655 22.4351 11.9998C22.4351 6.53416 17.9876 2.0867 12.522 2.0867C8.42111 2.0867 4.79926 4.55452 3.29556 8.3726C3.13583 8.77652 2.6809 8.9716 2.28023 8.81511C1.87842 8.65653 1.68028 8.2016 1.83887 7.80093C3.58044 3.3785 7.77302 0.521484 12.522 0.521484C18.8507 0.521484 24.0003 5.67111 24.0003 11.9998C24.0003 18.3285 18.8507 23.4781 12.522 23.4781V23.4781Z" fill="#7ccdce"/>
</g>
<defs>
<clipPath id="clip0">
<rect width="24" height="24" fill="white"/>
</clipPath>
</defs>
</svg>
