<svg viewBox="0 0 39 39" fill="none" xmlns="http://www.w3.org/2000/svg">
<path d="M19.1249 0C15.7901 0.000897251 12.5134 0.873541 9.61989 2.53139C6.72635 4.18924 4.31645 6.5747 2.62919 9.45119C0.941936 12.3277 0.035937 15.5953 0.00104726 18.9299C-0.0338425 22.2646 0.803589 25.5504 2.43029 28.4616L0.784978 34.2197C0.656296 34.6698 0.650347 35.1462 0.767748 35.5994C0.885148 36.0526 1.12163 36.4662 1.45267 36.7973C1.78371 37.1283 2.19727 37.3648 2.65049 37.4823C3.1037 37.5997 3.58007 37.5938 4.03023 37.4651L9.78854 35.8198C12.3394 37.2463 15.1832 38.0692 18.1017 38.2253C21.0201 38.3815 23.9355 37.8667 26.624 36.7206C29.3125 35.5745 31.7026 33.8275 33.6108 31.6138C35.5189 29.4001 36.8944 26.7785 37.6315 23.9504C38.3687 21.1223 38.4479 18.1628 37.8631 15.2993C37.2783 12.4358 36.0451 9.74441 34.2581 7.43177C32.4711 5.11914 30.1779 3.24678 27.5546 1.95848C24.9312 0.67018 22.0475 0.000204697 19.1249 0V0ZM19.1249 36C16.0943 36.0021 13.1192 35.1868 10.513 33.6399C10.3812 33.5616 10.2348 33.511 10.0828 33.4913C9.93071 33.4716 9.77623 33.4831 9.62879 33.5252L3.41204 35.3014C3.34777 35.3198 3.27974 35.3206 3.21502 35.3039C3.1503 35.2871 3.09124 35.2534 3.04396 35.2061C2.99667 35.1588 2.96289 35.0998 2.94612 35.0351C2.92934 34.9704 2.93018 34.9023 2.94854 34.8381L4.72454 28.6211C4.76665 28.4738 4.7782 28.3193 4.75846 28.1673C4.73873 28.0153 4.68814 27.869 4.60979 27.7373C2.70908 24.535 1.92082 20.794 2.36781 17.0971C2.8148 13.4002 4.47193 9.9549 7.08107 7.29793C9.69021 4.64096 13.1048 2.92152 16.793 2.40746C20.4812 1.8934 24.2359 2.61357 27.4721 4.45581C30.7084 6.29804 33.2445 9.15888 34.6853 12.5927C36.1262 16.0265 36.391 19.8404 35.4383 23.4403C34.4857 27.0403 32.3692 30.2241 29.4186 32.4958C26.4679 34.7675 22.8488 35.9995 19.1249 36V36ZM28.7819 22.2763L24.9457 20.0839C24.5407 19.853 24.0816 19.7339 23.6154 19.7389C23.1493 19.744 22.6928 19.8728 22.2929 20.1124L19.8845 21.5574C18.5321 20.8274 17.4226 19.7179 16.6927 18.3654L18.1377 15.957C18.3773 15.5571 18.5062 15.1006 18.5111 14.6344C18.5161 14.1683 18.3969 13.7092 18.1659 13.3043L15.9738 9.468C15.7619 9.09834 15.4564 8.79109 15.0879 8.57724C14.7194 8.3634 14.301 8.25052 13.8749 8.25C12.1883 8.25053 10.5705 8.91922 9.37578 10.1097C8.18101 11.3002 7.50651 12.9155 7.49992 14.6021C7.49688 16.7216 7.91173 18.8209 8.72072 20.7799C9.52971 22.7389 10.717 24.5192 12.2146 26.019C13.7122 27.5188 15.4908 28.7086 17.4487 29.5204C19.4066 30.3322 21.5052 30.75 23.6247 30.75H23.6478C25.3344 30.7434 26.9497 30.0689 28.1402 28.8741C29.3307 27.6794 29.9994 26.0616 29.9999 24.375C29.9994 23.949 29.8866 23.5306 29.6727 23.1621C29.4589 22.7936 29.1516 22.4881 28.7819 22.2763V22.2763ZM23.6446 28.5H23.6249C21.8012 28.5 19.9953 28.1405 18.3107 27.442C16.626 26.7435 15.0956 25.7197 13.8069 24.4292C12.5182 23.1387 11.4966 21.6069 10.8005 19.9212C10.1043 18.2356 9.74735 16.4292 9.74992 14.6055C9.75478 13.5148 10.1916 12.4704 10.9646 11.701C11.7377 10.9315 12.7842 10.4997 13.8749 10.5C13.9044 10.5 13.9334 10.5078 13.9589 10.5227C13.9844 10.5375 14.0056 10.5588 14.0202 10.5844L16.2123 14.4206C16.2453 14.4784 16.2623 14.544 16.2616 14.6105C16.2609 14.6771 16.2425 14.7423 16.2084 14.7994L14.4477 17.7338C14.3544 17.8893 14.3002 18.0652 14.2895 18.2463C14.2789 18.4274 14.3122 18.6084 14.3866 18.7738C15.403 21.0361 17.214 22.847 19.4763 23.8633C19.6417 23.9378 19.8227 23.9711 20.0039 23.9604C20.185 23.9497 20.3608 23.8954 20.5164 23.802L23.4504 22.0417C23.5075 22.0076 23.5727 21.9892 23.6393 21.9884C23.7059 21.9877 23.7715 22.0046 23.8295 22.0374L27.6657 24.2299C27.6913 24.2445 27.7125 24.2657 27.7273 24.2911C27.7421 24.3166 27.7499 24.3455 27.7499 24.375C27.7502 25.4657 27.3184 26.5121 26.549 27.2852C25.7796 28.0583 24.7353 28.4951 23.6446 28.5V28.5Z" fill="white"/>
</svg>
